<svg width="403" height="375" viewBox="0 0 403 375" fill="none" xmlns="http://www.w3.org/2000/svg">
<path d="M130.52 52.17C158.3 54.35 186.08 44.31 209.97 29.05C317.97 -52.39 464.14 53.19 335.97 154.99C272.75 208.25 207.9 206.86 143.43 197.09C12.48 183.31 24.47 85 44.58 59.87C65 35.36 103.7 50.77 130.52 52.17Z" fill="#42AAF5"/>
<path opacity="0.9" d="M130.52 52.17C158.3 54.35 186.08 44.31 209.97 29.05C317.97 -52.39 464.14 53.19 335.97 154.99C272.75 208.25 207.9 206.86 143.43 197.09C12.48 183.31 24.47 85 44.58 59.87C65 35.36 103.7 50.77 130.52 52.17Z" fill="white"/>
<path d="M209 339.56C316.082 339.56 402.89 334.492 402.89 328.24C402.89 321.988 316.082 316.92 209 316.92C101.918 316.92 15.11 321.988 15.11 328.24C15.11 334.492 101.918 339.56 209 339.56Z" fill="#F5F5F5"/>
<path d="M181.63 103.56H159.55V328.24H181.63C196.383 328.24 210.991 325.334 224.621 319.689C238.25 314.043 250.635 305.768 261.066 295.336C271.498 284.905 279.773 272.52 285.419 258.891C291.064 245.261 293.97 230.653 293.97 215.9C293.97 201.147 291.064 186.539 285.419 172.909C279.773 159.28 271.498 146.895 261.066 136.464C250.635 126.032 238.25 117.757 224.621 112.111C210.991 106.466 196.383 103.56 181.63 103.56V103.56Z" fill="#42AAF5"/>
<path opacity="0.1" d="M181.63 103.56H159.55V328.24H181.63C196.383 328.24 210.991 325.334 224.621 319.689C238.25 314.043 250.635 305.768 261.066 295.336C271.498 284.905 279.773 272.52 285.419 258.891C291.064 245.261 293.97 230.653 293.97 215.9C293.97 201.147 291.064 186.539 285.419 172.909C279.773 159.28 271.498 146.895 261.066 136.464C250.635 126.032 238.25 117.757 224.621 112.111C210.991 106.466 196.383 103.56 181.63 103.56V103.56Z" fill="black"/>
<path d="M108.52 113L108.07 112.11C115.879 108.22 124.105 105.23 132.59 103.2L132.82 104.2C124.413 106.206 116.261 109.158 108.52 113V113Z" fill="#42AAF5"/>
<path d="M95.54 120.59L94.99 119.76C97.14 118.32 99.36 116.92 101.59 115.63L102.09 116.49C99.88 117.78 97.68 119.16 95.54 120.59Z" fill="#42AAF5"/>
<path d="M238.986 295.336C282.858 251.464 282.858 180.335 238.986 136.463C195.115 92.5916 123.985 92.5916 80.1136 136.463C36.2421 180.335 36.2421 251.464 80.1136 295.336C123.985 339.207 195.115 339.207 238.986 295.336Z" fill="#42AAF5"/>
<path opacity="0.1" d="M228.1 155.28C210.656 139.815 187.967 131.592 164.665 132.289C141.364 132.986 119.207 142.551 102.718 159.03C86.2296 175.51 76.6529 197.662 75.9433 220.963C75.2337 244.264 83.4448 266.958 98.9 284.41C89.5609 276.131 82.0143 266.028 76.7244 254.724C71.4345 243.42 68.5131 231.153 68.14 218.678C67.7669 206.202 69.9498 193.783 74.5547 182.183C79.1595 170.582 86.0888 160.047 94.9164 151.224C103.744 142.401 114.283 135.478 125.886 130.879C137.489 126.281 149.909 124.104 162.384 124.484C174.859 124.864 187.125 127.792 198.426 133.088C209.727 138.384 219.826 145.936 228.1 155.28V155.28Z" fill="black"/>
<path d="M267.07 54.92C272.477 54.92 276.86 50.604 276.86 45.28C276.86 39.956 272.477 35.64 267.07 35.64C261.663 35.64 257.28 39.956 257.28 45.28C257.28 50.604 261.663 54.92 267.07 54.92Z" fill="#263238"/>
<path d="M275.75 53.38C275.764 54.4608 275.456 55.5213 274.866 56.4267C274.275 57.3321 273.429 58.0415 272.435 58.4648C271.44 58.888 270.342 59.006 269.28 58.8037C268.219 58.6014 267.241 58.0879 266.472 57.3285C265.703 56.5692 265.176 55.5983 264.96 54.5392C264.744 53.4802 264.848 52.3808 265.259 51.3809C265.669 50.3809 266.367 49.5256 267.265 48.9236C268.163 48.3216 269.219 48.0001 270.3 48C271.011 47.9947 271.717 48.1298 272.376 48.3974C273.035 48.6651 273.635 49.06 274.141 49.5597C274.647 50.0595 275.05 50.6541 275.326 51.3096C275.602 51.9652 275.746 52.6687 275.75 53.38V53.38Z" fill="#263238"/>
<path d="M280.53 53.13C285.937 53.13 290.32 48.814 290.32 43.49C290.32 38.166 285.937 33.85 280.53 33.85C275.123 33.85 270.74 38.166 270.74 43.49C270.74 48.814 275.123 53.13 280.53 53.13Z" fill="#263238"/>
<path d="M281.97 320.01L290 319.89L292.31 301.27L284.28 301.39L281.97 320.01Z" fill="#FF8B7B"/>
<path d="M330.85 319.58L338.11 315.34L332.29 298.17L325.04 302.41L330.85 319.58Z" fill="#FF8B7B"/>
<path d="M338.89 314.77L330.38 319.6C330.24 319.676 330.132 319.799 330.073 319.947C330.015 320.095 330.01 320.259 330.06 320.41L332.2 327.41C332.254 327.579 332.345 327.733 332.466 327.861C332.588 327.99 332.736 328.09 332.901 328.153C333.067 328.217 333.244 328.242 333.42 328.228C333.597 328.213 333.767 328.159 333.92 328.07C336.63 326.47 338.54 325.18 341.99 323.22C344.11 322.02 350.64 318.61 353.57 316.94C356.5 315.27 355.24 312.17 353.89 312.58C347.84 314.46 342.89 315.14 340.27 314.58C339.802 314.476 339.312 314.543 338.89 314.77Z" fill="#263238"/>
<path d="M290.16 319L281.39 319.14C281.232 319.141 281.08 319.197 280.958 319.297C280.836 319.397 280.752 319.536 280.72 319.69L279.25 326.85C279.212 327.023 279.214 327.202 279.255 327.373C279.297 327.545 279.377 327.705 279.49 327.841C279.603 327.977 279.745 328.086 279.906 328.158C280.068 328.231 280.243 328.266 280.42 328.26C283.58 328.16 288.15 327.9 292.12 327.84C296.77 327.77 300.79 327.96 306.24 327.84C309.53 327.79 310.39 324.45 309.01 324.17C302.71 322.89 297.58 322.82 292.1 319.56C291.517 319.199 290.846 319.005 290.16 319Z" fill="#263238"/>
<path d="M302.4 75.85C303.52 78.2 304.73 80.74 305.96 83.15C307.19 85.56 308.45 88.03 309.75 90.41C312.246 95.1169 315.045 99.6565 318.13 104L318.7 104.79C318.79 104.91 318.79 104.92 318.78 104.94C318.53 104.823 318.264 104.745 317.99 104.71C317.55 104.66 317.23 104.81 317.27 104.85C317.483 104.814 317.685 104.728 317.86 104.6C318.691 104.027 319.45 103.355 320.12 102.6C320.96 101.688 321.748 100.73 322.48 99.73C324.05 97.67 325.48 95.39 326.95 93.07C328.42 90.75 329.78 88.33 331.11 85.98L336.73 88.17C335.213 93.9034 333.049 99.4456 330.28 104.69C329.513 106.068 328.672 107.403 327.76 108.69C326.719 110.176 325.488 111.521 324.1 112.69C323.178 113.461 322.147 114.091 321.04 114.56C319.505 115.211 317.821 115.432 316.17 115.2C314.498 114.921 312.933 114.195 311.64 113.1C311.146 112.68 310.681 112.225 310.25 111.74L309.51 110.86C307.534 108.584 305.694 106.193 304 103.7C302.29 101.27 300.75 98.77 299.25 96.26C297.75 93.75 296.36 91.19 295.03 88.6C293.7 86.01 292.45 83.45 291.26 80.6L302.4 75.85Z" fill="#FF8B7B"/>
<path d="M288 75.8C285.84 83.16 301.08 103.23 301.08 103.23L316.44 93.35C313.544 86.9866 309.973 80.9521 305.79 75.35C299.45 67.28 290.33 67.72 288 75.8Z" fill="#42AAF5"/>
<path opacity="0.2" d="M297.32 84.44C300.48 85.79 305.13 93.44 307.55 99.04L301 103.23C297.357 98.3597 294.082 93.2256 291.2 87.87C293.29 85.61 295.65 83.73 297.32 84.44Z" fill="black"/>
<path d="M331.19 89.09L329.19 80.04L338.32 79.97C338.32 79.97 340.76 86.77 335.86 89.97L331.19 89.09Z" fill="#FF8B7B"/>
<path d="M330.26 71.56L337.58 74.19L338.35 79.97L329.22 80.04L330.26 71.56Z" fill="#FF8B7B"/>
<path opacity="0.2" d="M292.31 301.27L291.12 310.87L283.08 311L284.28 301.4L292.31 301.27Z" fill="black"/>
<path opacity="0.2" d="M325.04 302.41L332.3 298.18L335.29 307.03L328.03 311.26L325.04 302.41Z" fill="black"/>
<path d="M252.17 72.54C260.82 103.03 259.08 135.39 259.86 141.94C266.13 141.49 289.78 139.72 302.67 138.76C306.78 92.89 297.05 69.6 297.05 69.6C297.05 69.6 294.3 69.07 290.55 68.68C289.38 68.56 288.11 68.46 286.79 68.39C286.06 68.39 285.32 68.32 284.57 68.31C278.483 68.4139 272.406 68.8646 266.37 69.66C265.23 69.8 264.07 69.98 262.94 70.16C261.81 70.34 260.88 70.53 259.94 70.72C255.55 71.59 252.17 72.54 252.17 72.54Z" fill="#42AAF5"/>
<path opacity="0.1" d="M282.62 100.26L275.87 103.56L268.51 100.83L267.3 88.98L281.42 88.41L282.62 100.26Z" fill="white"/>
<path opacity="0.2" d="M261.31 85.62C262.08 88.57 261.2 102.03 258.12 105.35C257.7 101.04 257.12 96.54 256.4 91.94L261.31 85.62Z" fill="black"/>
<path d="M266.65 49C268.24 54.77 270.18 65.42 266.37 69.63C269.79 72.56 274.22 75.9 281.2 75.63C288.18 75.36 286.6 70.63 284.57 68.28C277.93 67.2 277.73 62.34 278.57 57.71L266.65 49Z" fill="#FF8B7B"/>
<path d="M266.37 68.3C266.37 68.3 268.19 72.61 282.74 75.51C280.33 77.28 279.23 81.61 279.23 81.61C279.23 81.61 260.23 78.42 260.81 69.96C261.8 69.16 266.37 68.3 266.37 68.3Z" fill="white"/>
<path d="M289 80C287.232 78.1018 285.109 76.5694 282.75 75.49C283.728 74.4975 284.392 73.2387 284.659 71.871C284.926 70.5033 284.783 69.0874 284.25 67.8C285.709 67.7525 287.17 67.8126 288.62 67.98C288.62 67.98 295.38 73.24 289 80Z" fill="white"/>
<path opacity="0.4" d="M283.45 81.6C283.58 82.48 284.07 83.13 284.55 83.06C285.03 82.99 285.3 82.22 285.17 81.34C285.04 80.46 284.55 79.8 284.08 79.87C283.61 79.94 283.32 80.71 283.45 81.6Z" fill="#263238"/>
<path opacity="0.2" d="M271.5 52.59L278.5 57.74C278.295 58.8182 278.188 59.9126 278.18 61.01C275.66 60.83 272.03 58.35 271.57 55.76C271.353 54.7165 271.329 53.642 271.5 52.59V52.59Z" fill="black"/>
<path d="M274.76 41.83C280.912 41.83 285.9 36.9186 285.9 30.86C285.9 24.8015 280.912 19.89 274.76 19.89C268.608 19.89 263.62 24.8015 263.62 30.86C263.62 36.9186 268.608 41.83 274.76 41.83Z" fill="#263238"/>
<path d="M285.16 32.27C285.129 32.2586 285.103 32.2357 285.088 32.2059C285.073 32.1762 285.07 32.1418 285.08 32.11C285.463 30.7342 285.567 29.2958 285.387 27.8791C285.207 26.4625 284.745 25.0961 284.03 23.86C282.578 21.3346 280.188 19.4839 277.38 18.71C277.348 18.702 277.321 18.6818 277.304 18.6536C277.287 18.6255 277.282 18.5918 277.29 18.56C277.298 18.5282 277.318 18.5008 277.346 18.4839C277.375 18.4671 277.408 18.462 277.44 18.47C278.864 18.8562 280.197 19.5196 281.364 20.4222C282.531 21.3249 283.508 22.4489 284.24 23.73C284.973 24.9959 285.446 26.3953 285.631 27.8462C285.817 29.2971 285.711 30.7705 285.32 32.18C285.309 32.2118 285.286 32.2383 285.257 32.2549C285.227 32.2714 285.193 32.2768 285.16 32.27V32.27Z" fill="#263238"/>
<path d="M283.93 44.09C288.58 44.09 292.35 40.3785 292.35 35.8C292.35 31.2216 288.58 27.51 283.93 27.51C279.28 27.51 275.51 31.2216 275.51 35.8C275.51 40.3785 279.28 44.09 283.93 44.09Z" fill="#263238"/>
<path d="M264.62 45.78C270.027 45.78 274.41 41.464 274.41 36.14C274.41 30.816 270.027 26.5 264.62 26.5C259.213 26.5 254.83 30.816 254.83 36.14C254.83 41.464 259.213 45.78 264.62 45.78Z" fill="#263238"/>
<path d="M265.3 40.27C266.38 48.16 266.61 52.84 270.91 56.61C277.39 62.28 286.91 57.92 288.21 49.87C289.39 42.62 287.43 30.93 279.43 28.35C277.67 27.7718 275.791 27.6536 273.972 28.0067C272.153 28.3597 270.455 29.1722 269.039 30.3669C267.622 31.5616 266.535 33.0987 265.881 34.8321C265.227 36.5655 265.027 38.4375 265.3 40.27Z" fill="#FF8B7B"/>
<path d="M260.82 36.34C261.64 47.44 286.16 31.91 280.94 25.99C275.72 20.07 267.71 24.25 264.82 26.92C261.21 30.25 260.62 33.62 260.82 36.34Z" fill="#263238"/>
<path d="M279.91 26.45C284.43 25.07 292.15 33.13 285.23 32.32C278.31 31.51 274.61 28.08 279.91 26.45Z" fill="#263238"/>
<path d="M262.37 49.28C262.957 50.0811 263.697 50.7584 264.546 51.2732C265.396 51.788 266.338 52.1301 267.32 52.28C269.95 52.66 270.92 50.22 269.9 47.92C268.99 45.85 266.51 43.16 264.01 43.84C261.51 44.52 260.93 47.29 262.37 49.28Z" fill="#FF8B7B"/>
<path d="M294.1 309L280.51 309.21C280.51 309.21 288.36 255.52 287.14 230.54C286.77 222.94 287.98 212.31 285.98 200.92C283.44 186.56 282.22 180.84 278.98 162.7C276.64 149.76 274.57 140.89 274.57 140.89L302.71 138.79C302.71 138.79 311.9 203.5 311.63 227.99C311.31 253.43 294.1 309 294.1 309Z" fill="#263238"/>
<path d="M264.14 37.42C268.68 38.73 270.76 49.7 265.39 45.24C260.02 40.78 258.82 35.89 264.14 37.42Z" fill="#263238"/>
<path opacity="0.2" d="M286 200.89C286.956 206.84 287.351 212.866 287.18 218.89C289.52 225.5 291.56 231.76 292.98 237.33C295.47 247.08 299.41 261.86 303.25 276.07C307.42 259.43 311.48 240.2 311.61 227.94L286 200.89Z" fill="black"/>
<path d="M287.49 139.89C287.49 139.89 307.71 190.99 315.37 213.22C323.77 237.57 337.32 303.3 337.32 303.3L324.54 310.56C324.54 310.56 304.61 256.37 296.36 232.65C286.96 205.65 261.07 162.94 259.86 141.95L287.49 139.89Z" fill="#263238"/>
<path d="M339.01 302.71L323.95 311.25L321.4 306.75L338.07 296.92L339.01 302.71Z" fill="#42AAF5"/>
<path d="M295.81 309.26L279.62 309.51L279.54 304.28L297.63 303.72L295.81 309.26Z" fill="#42AAF5"/>
<path d="M275.87 41.59C275.92 42.24 276.3 42.74 276.72 42.7C277.14 42.66 277.44 42.12 277.4 41.48C277.36 40.84 276.97 40.34 276.55 40.37C276.13 40.4 275.82 41 275.87 41.59Z" fill="#263238"/>
<path d="M284.79 41.05C284.79 41.7 285.22 42.19 285.64 42.16C286.06 42.13 286.37 41.58 286.32 40.94C286.27 40.3 285.89 39.79 285.47 39.82C285.05 39.85 284.74 40.4 284.79 41.05Z" fill="#263238"/>
<path d="M282.49 41.54C283.409 43.4581 284.587 45.2413 285.99 46.84C285.577 47.1821 285.096 47.4308 284.578 47.5689C284.06 47.707 283.518 47.7313 282.99 47.64L282.49 41.54Z" fill="#FF5652"/>
<path d="M280.35 49.57C279.624 49.5412 278.912 49.3629 278.258 49.0463C277.604 48.7297 277.023 48.2816 276.55 47.73C276.532 47.7106 276.518 47.6877 276.509 47.6626C276.5 47.6375 276.497 47.6109 276.499 47.5844C276.501 47.5579 276.509 47.5321 276.521 47.5088C276.534 47.4854 276.552 47.465 276.573 47.4488C276.594 47.4327 276.618 47.4211 276.644 47.4149C276.67 47.4087 276.697 47.4079 276.723 47.4128C276.749 47.4176 276.774 47.4278 276.796 47.4429C276.818 47.4579 276.836 47.4773 276.85 47.5C277.387 48.1006 278.058 48.5665 278.809 48.86C279.559 49.1536 280.368 49.2666 281.17 49.19C281.194 49.1872 281.219 49.1895 281.243 49.1967C281.266 49.2038 281.288 49.2158 281.307 49.2317C281.326 49.2476 281.341 49.2672 281.352 49.2893C281.363 49.3113 281.369 49.3354 281.37 49.36C281.373 49.385 281.371 49.4102 281.363 49.4344C281.356 49.4585 281.345 49.4809 281.329 49.5005C281.313 49.52 281.294 49.5362 281.271 49.5481C281.249 49.5601 281.225 49.5675 281.2 49.57C280.917 49.5901 280.633 49.5901 280.35 49.57Z" fill="#263238"/>
<path d="M274.51 39.4C274.445 39.3987 274.383 39.3777 274.33 39.34C274.288 39.3136 274.252 39.2791 274.223 39.2384C274.195 39.1977 274.175 39.1518 274.165 39.1033C274.155 39.0548 274.154 39.0047 274.164 38.956C274.173 38.9074 274.192 38.8611 274.22 38.82C274.537 38.2999 274.976 37.8644 275.499 37.5509C276.021 37.2374 276.612 37.0553 277.22 37.02C277.321 37.02 277.417 37.06 277.489 37.1313C277.56 37.2026 277.6 37.2992 277.6 37.4C277.6 37.5008 277.56 37.5974 277.489 37.6687C277.417 37.74 277.321 37.78 277.22 37.78V37.78C276.744 37.8189 276.285 37.9708 275.879 38.2229C275.474 38.4751 275.135 38.8204 274.89 39.23C274.85 39.2922 274.793 39.3415 274.725 39.3717C274.658 39.4019 274.583 39.4117 274.51 39.4V39.4Z" fill="#263238"/>
<path d="M287.75 37.05C287.686 37.0498 287.623 37.0319 287.568 36.9984C287.514 36.9649 287.469 36.917 287.44 36.86C287.213 36.4395 286.888 36.0794 286.493 35.8097C286.098 35.5401 285.645 35.3688 285.17 35.31C285.121 35.3075 285.072 35.2951 285.027 35.2734C284.983 35.2518 284.943 35.2214 284.91 35.1841C284.878 35.1468 284.853 35.1033 284.837 35.0562C284.822 35.0091 284.816 34.9594 284.82 34.91C284.825 34.811 284.869 34.7179 284.942 34.6506C285.015 34.5834 285.111 34.5473 285.21 34.55C285.811 34.6179 286.387 34.8285 286.889 35.1642C287.392 35.5 287.807 35.9511 288.1 36.48C288.148 36.5681 288.16 36.6712 288.134 36.7681C288.108 36.8649 288.046 36.948 287.96 37C287.898 37.0397 287.824 37.0574 287.75 37.05V37.05Z" fill="#263238"/>
<path d="M341.89 314.68C341.256 315.017 340.585 315.279 339.89 315.46C339.854 315.471 339.817 315.471 339.781 315.46C339.745 315.449 339.714 315.428 339.69 315.4C339.671 315.368 339.66 315.332 339.66 315.295C339.66 315.258 339.671 315.222 339.69 315.19C339.86 314.89 341.33 312.19 342.32 312.19C342.431 312.189 342.54 312.217 342.637 312.271C342.733 312.326 342.814 312.404 342.87 312.5C342.982 312.652 343.055 312.829 343.081 313.016C343.107 313.203 343.086 313.393 343.02 313.57C342.779 314.056 342.381 314.447 341.89 314.68V314.68ZM340.27 314.96C341.59 314.52 342.48 313.96 342.68 313.43C342.724 313.308 342.736 313.177 342.715 313.049C342.694 312.922 342.641 312.801 342.56 312.7C342.48 312.58 342.41 312.56 342.35 312.56C341.83 312.59 340.89 313.91 340.27 315V314.96Z" fill="#42AAF5"/>
<path d="M340 315.45H339.9C339.866 315.448 339.833 315.436 339.805 315.417C339.777 315.398 339.754 315.371 339.74 315.34C339.74 315.25 338.74 313.14 339.16 312.02C339.207 311.882 339.283 311.756 339.383 311.651C339.483 311.546 339.605 311.463 339.74 311.41C339.864 311.34 340.008 311.315 340.148 311.339C340.288 311.362 340.416 311.433 340.51 311.54C341.1 312.24 340.57 314.54 340.07 315.36C340.059 315.398 340.034 315.43 340 315.45V315.45ZM339.81 311.82C339.739 311.857 339.676 311.908 339.624 311.97C339.573 312.032 339.534 312.103 339.51 312.18C339.377 313.086 339.523 314.01 339.93 314.83C340.34 313.88 340.57 312.22 340.22 311.83C340.22 311.83 340.12 311.7 339.89 311.83L339.81 311.82Z" fill="#42AAF5"/>
<path d="M291 320.06C290.966 320.048 290.936 320.026 290.913 319.998C290.89 319.97 290.875 319.936 290.87 319.9C290.862 319.862 290.868 319.822 290.886 319.787C290.904 319.753 290.934 319.725 290.97 319.71C291.33 319.51 294.53 317.83 295.51 318.35C295.602 318.401 295.68 318.474 295.736 318.564C295.792 318.653 295.824 318.755 295.83 318.86V318.86C295.853 319.031 295.835 319.205 295.775 319.367C295.716 319.529 295.618 319.674 295.49 319.79C294.62 320.58 292.32 320.3 291.02 320.06H291ZM295.26 318.66C294.65 318.46 292.92 319.15 291.65 319.78C293.43 320.05 294.75 319.95 295.24 319.51C295.324 319.432 295.387 319.335 295.423 319.226C295.46 319.118 295.469 319.003 295.45 318.89C295.453 318.848 295.444 318.807 295.422 318.771C295.401 318.735 295.368 318.707 295.33 318.69L295.26 318.66Z" fill="#42AAF5"/>
<path d="M291 320.06H290.95C290.921 320.043 290.899 320.017 290.884 319.987C290.87 319.957 290.865 319.923 290.87 319.89C290.87 319.8 291.06 317.63 292.06 316.78C292.202 316.654 292.368 316.558 292.549 316.5C292.73 316.441 292.921 316.421 293.11 316.44C293.64 316.44 293.79 316.74 293.83 316.96C293.99 317.86 292.1 319.63 291.14 320.08C291.092 320.088 291.043 320.081 291 320.06V320.06ZM293.28 316.82H293.08C292.941 316.807 292.8 316.823 292.667 316.868C292.535 316.913 292.413 316.985 292.31 317.08C291.728 317.787 291.379 318.657 291.31 319.57C292.31 318.96 293.57 317.57 293.48 317.03C293.473 316.973 293.446 316.921 293.404 316.883C293.362 316.844 293.307 316.822 293.25 316.82H293.28Z" fill="#42AAF5"/>
<path d="M261 83C258.74 87.66 256.46 92.45 254.25 97.19C253.14 99.57 252.04 101.94 251 104.32C249.96 106.7 248.92 109.08 247.94 111.46C247.48 112.65 246.94 113.84 246.55 115.01L245.91 116.76C245.827 116.911 245.763 117.073 245.72 117.24C245.618 117.744 245.67 118.267 245.87 118.74C246.19 119.566 246.617 120.346 247.14 121.06C249.58 124.42 253.83 127.7 257.86 130.51L255.45 136C254.059 135.597 252.69 135.12 251.35 134.57C250.012 134.033 248.704 133.426 247.43 132.75C244.688 131.363 242.164 129.581 239.94 127.46C238.647 126.215 237.545 124.787 236.67 123.22C235.607 121.317 235.033 119.18 235 117C234.985 115.832 235.133 114.667 235.44 113.54L236.03 111.48C236.41 110.11 236.85 108.81 237.27 107.48C239.05 102.23 241.05 97.16 243.2 92.17C245.35 87.18 247.66 82.33 250.2 77.45L261 83Z" fill="#FF8B7B"/>
<path d="M252.18 72.54C244.85 74.84 237.65 99.67 237.65 99.67L254.59 107.08C254.59 107.08 260.08 95.08 263.23 85.68C266.66 75.43 261.05 69.76 252.18 72.54Z" fill="#42AAF5"/>
<path d="M255 129.84L263.12 130.64L259.82 139.64C259.82 139.64 252.52 138.02 252.61 134.04L255 129.84Z" fill="#FF8B7B"/>
<path d="M270.12 134.68L265.83 142.12L259.76 139.68L263.07 130.64L270.12 134.68Z" fill="#FF8B7B"/>
<path d="M276.51 45.53C275.415 45.5379 274.342 45.2204 273.427 44.6175C272.512 44.0147 271.797 43.1539 271.373 42.1441C270.948 41.1344 270.833 40.0212 271.041 38.9459C271.25 37.8706 271.774 36.8815 272.546 36.1041C273.317 35.3267 274.303 34.796 275.376 34.5794C276.45 34.3627 277.564 34.4699 278.577 34.8872C279.59 35.3046 280.456 36.0133 281.065 36.9236C281.675 37.8338 282 38.9046 282 40C281.997 41.459 281.419 42.858 280.392 43.8934C279.364 44.9287 277.969 45.5168 276.51 45.53ZM276.51 34.97C275.521 34.97 274.554 35.2633 273.732 35.8127C272.91 36.3621 272.269 37.143 271.891 38.0566C271.512 38.9702 271.413 39.9756 271.606 40.9455C271.799 41.9154 272.275 42.8063 272.974 43.5055C273.674 44.2048 274.565 44.681 275.535 44.8739C276.504 45.0669 277.51 44.9678 278.423 44.5894C279.337 44.211 280.118 43.5701 280.667 42.7479C281.217 41.9256 281.51 40.9589 281.51 39.97C281.502 38.6491 280.972 37.3851 280.035 36.4539C279.098 35.5226 277.831 35 276.51 35V34.97Z" fill="white"/>
<path d="M288.53 45.53C287.436 45.53 286.367 45.2057 285.458 44.598C284.548 43.9904 283.84 43.1267 283.421 42.1162C283.002 41.1058 282.893 39.9939 283.106 38.9212C283.32 37.8484 283.846 36.8631 284.62 36.0897C285.393 35.3163 286.378 34.7896 287.451 34.5763C288.524 34.3629 289.636 34.4724 290.646 34.891C291.657 35.3095 292.52 36.0183 293.128 36.9277C293.736 37.8371 294.06 38.9063 294.06 40C294.057 41.4658 293.474 42.8709 292.437 43.9074C291.401 44.9439 289.996 45.5274 288.53 45.53V45.53ZM288.53 34.97C287.541 34.97 286.574 35.2633 285.752 35.8127C284.93 36.3621 284.289 37.143 283.911 38.0566C283.532 38.9702 283.433 39.9756 283.626 40.9455C283.819 41.9154 284.295 42.8063 284.994 43.5055C285.694 44.2048 286.585 44.681 287.555 44.8739C288.524 45.0669 289.53 44.9678 290.443 44.5894C291.357 44.211 292.138 43.5701 292.687 42.7479C293.237 41.9256 293.53 40.9589 293.53 39.97C293.522 38.6491 292.992 37.3851 292.055 36.4538C291.118 35.5226 289.851 35 288.53 35V34.97Z" fill="white"/>
<path d="M206.082 192.006C205.369 192.721 204.387 193.139 203.346 193.139L108.939 193.139C107.214 193.139 106.352 191.052 107.571 189.829L126.22 171.133C126.934 170.417 127.916 170 128.957 170L223.364 170C225.089 170 225.951 172.087 224.732 173.31L206.082 192.006Z" fill="white"/>
<path d="M206.082 261.811C205.339 262.527 204.357 262.944 203.346 262.944L108.939 262.944C107.214 262.944 106.352 260.857 107.571 259.635L126.221 240.939C126.934 240.223 127.916 239.806 128.957 239.806L223.364 239.806C225.089 239.806 225.951 241.893 224.732 243.115L206.082 261.811Z" fill="white"/>
<path d="M126.22 227.133C126.934 227.848 127.916 228.266 128.957 228.266L223.364 228.266C225.089 228.266 225.951 226.179 224.732 224.956L206.082 206.26C205.369 205.544 204.387 205.127 203.346 205.127L108.939 205.127C107.214 205.127 106.352 207.214 107.571 208.437L126.22 227.133Z" fill="white"/>
</svg>
