<svg width="423" height="335" viewBox="0 0 423 335" fill="none" xmlns="http://www.w3.org/2000/svg">
<path d="M193.89 334.191C300.972 334.191 387.78 329.122 387.78 322.871C387.78 316.619 300.972 311.551 193.89 311.551C86.8075 311.551 0 316.619 0 322.871C0 329.122 86.8075 334.191 193.89 334.191Z" fill="#42AAF5"/>
<g filter="url(#filter0_d_16_1450)">
<path d="M179.7 310.431H62.77V323.771H179.7V310.431Z" fill="#42AAF5"/>
<path opacity="0.3" d="M179.7 310.431H62.77V323.771H179.7V310.431Z" fill="black"/>
<path d="M68.74 312.331H65.81V321.881H68.74V312.331Z" fill="#263238"/>
<path d="M73.88 312.331H70.95V321.881H73.88V312.331Z" fill="#263238"/>
<path d="M79.03 312.331H76.1V321.881H79.03V312.331Z" fill="#263238"/>
<path d="M84.17 312.331H81.24V321.881H84.17V312.331Z" fill="#263238"/>
<path d="M89.31 312.331H86.38V321.881H89.31V312.331Z" fill="#263238"/>
<path d="M94.45 312.331H91.52V321.881H94.45V312.331Z" fill="#263238"/>
<path d="M99.6001 312.331H96.67V321.881H99.6001V312.331Z" fill="#263238"/>
<path d="M104.74 312.331H101.81V321.881H104.74V312.331Z" fill="#263238"/>
<path d="M109.88 312.331H106.95V321.881H109.88V312.331Z" fill="#263238"/>
<path d="M115.02 312.331H112.09V321.881H115.02V312.331Z" fill="#263238"/>
<path d="M120.16 312.331H117.23V321.881H120.16V312.331Z" fill="#263238"/>
<path d="M125.31 312.331H122.38V321.881H125.31V312.331Z" fill="#263238"/>
<path d="M130.45 312.331H127.52V321.881H130.45V312.331Z" fill="#263238"/>
<path d="M135.59 312.331H132.66V321.881H135.59V312.331Z" fill="#263238"/>
<path d="M140.73 312.331H137.8V321.881H140.73V312.331Z" fill="#263238"/>
<path d="M145.88 312.331H142.95V321.881H145.88V312.331Z" fill="#263238"/>
<path d="M151.02 312.331H148.09V321.881H151.02V312.331Z" fill="#263238"/>
<path d="M156.16 312.331H153.23V321.881H156.16V312.331Z" fill="#263238"/>
<path d="M161.3 312.331H158.37V321.881H161.3V312.331Z" fill="#263238"/>
<path d="M166.45 312.331H163.52V321.881H166.45V312.331Z" fill="#263238"/>
<path d="M171.59 312.331H168.66V321.881H171.59V312.331Z" fill="#263238"/>
<path d="M176.73 312.331H173.8V321.881H176.73V312.331Z" fill="#263238"/>
<path d="M179.71 323.781H197.95V310.441H179.71V323.781Z" fill="#263238"/>
<path d="M179.71 74.6807H56.69V310.431H179.71V74.6807Z" fill="#42AAF5"/>
<path opacity="0.3" d="M179.71 74.6807H56.69V310.431H179.71V74.6807Z" fill="white"/>
<path d="M195.96 72.6606H64.75V74.6806H195.96V72.6606Z" fill="#263238"/>
<path d="M52.81 184.531H51.81V194.461H52.81V184.531Z" fill="#42AAF5"/>
<path d="M52.81 197.801H51.81V223.631H52.81V197.801Z" fill="#42AAF5"/>
<path d="M179.7 310.431H204.03L204.03 74.6807H179.7L179.7 310.431Z" fill="#42AAF5"/>
<g style="mix-blend-mode:multiply" opacity="0.6">
<path d="M173.57 137.041H62.82C61.0141 137.041 59.55 138.505 59.55 140.311V157.171C59.55 158.977 61.0141 160.441 62.82 160.441H173.57C175.376 160.441 176.84 158.977 176.84 157.171V140.311C176.84 138.505 175.376 137.041 173.57 137.041Z" fill="#42AAF5"/>
</g>
<path opacity="0.2" d="M173.57 137.041H62.82C61.0141 137.041 59.55 138.505 59.55 140.311V157.171C59.55 158.977 61.0141 160.441 62.82 160.441H173.57C175.376 160.441 176.84 158.977 176.84 157.171V140.311C176.84 138.505 175.376 137.041 173.57 137.041Z" fill="black"/>
<path d="M166.97 145.631L162.24 135.871V161.631H176.89V148.741H171.99C170.946 148.745 169.922 148.456 169.034 147.906C168.146 147.356 167.431 146.567 166.97 145.631V145.631Z" fill="#42AAF5"/>
<path d="M176.84 77.5006H59.55V103.331H176.84V77.5006Z" fill="#42AAF5"/>
<path opacity="0.2" d="M176.84 77.5006H59.55V103.331H176.84V77.5006Z" fill="white"/>
<path d="M176.84 281.631H59.55V307.461H176.84V281.631Z" fill="#42AAF5"/>
<path opacity="0.2" d="M176.84 281.631H59.55V307.461H176.84V281.631Z" fill="white"/>
<path d="M176.84 252.471H59.55V278.301H176.84V252.471Z" fill="#42AAF5"/>
<path opacity="0.2" d="M176.84 252.471H59.55V278.301H176.84V252.471Z" fill="white"/>
<path d="M176.84 223.311H59.55V249.141H176.84V223.311Z" fill="#42AAF5"/>
<path opacity="0.2" d="M176.84 223.311H59.55V249.141H176.84V223.311Z" fill="white"/>
<path d="M176.84 194.151H59.55V219.981H176.84V194.151Z" fill="#42AAF5"/>
<path opacity="0.2" d="M176.84 194.151H59.55V219.981H176.84V194.151Z" fill="white"/>
<path d="M176.84 164.991H59.55V190.821H176.84V164.991Z" fill="#42AAF5"/>
<path opacity="0.2" d="M176.84 164.991H59.55V190.821H176.84V164.991Z" fill="white"/>
<path d="M162.24 135.831H44.95V161.661H162.24V135.831Z" fill="#42AAF5"/>
<path opacity="0.2" d="M162.24 135.831H44.95V161.661H162.24V135.831Z" fill="white"/>
<path d="M176.84 106.661H59.55V132.491H176.84V106.661Z" fill="#42AAF5"/>
<path opacity="0.2" d="M176.84 106.661H59.55V132.491H176.84V106.661Z" fill="white"/>
<path d="M169.54 81.1907H124.95C122.868 81.1907 121.18 82.8786 121.18 84.9607V95.8707C121.18 97.9528 122.868 99.6407 124.95 99.6407H169.54C171.622 99.6407 173.31 97.9528 173.31 95.8707V84.9607C173.31 82.8786 171.622 81.1907 169.54 81.1907Z" fill="#42AAF5"/>
<path opacity="0.2" d="M166.44 91.1807V89.6607C166.44 88.777 165.724 88.0607 164.84 88.0607H150.39C149.506 88.0607 148.79 88.777 148.79 89.6607V91.1807C148.79 92.0643 149.506 92.7807 150.39 92.7807H164.84C165.724 92.7807 166.44 92.0643 166.44 91.1807Z" fill="white"/>
<path d="M169.54 110.351H124.95C122.868 110.351 121.18 112.039 121.18 114.121V125.031C121.18 127.113 122.868 128.801 124.95 128.801H169.54C171.622 128.801 173.31 127.113 173.31 125.031V114.121C173.31 112.039 171.622 110.351 169.54 110.351Z" fill="#42AAF5"/>
<path opacity="0.2" d="M166.44 120.341V118.821C166.44 117.937 165.724 117.221 164.84 117.221H150.39C149.506 117.221 148.79 117.937 148.79 118.821V120.341C148.79 121.224 149.506 121.941 150.39 121.941H164.84C165.724 121.941 166.44 121.224 166.44 120.341Z" fill="white"/>
<path d="M154.94 139.521H110.35C108.268 139.521 106.58 141.209 106.58 143.291V154.201C106.58 156.283 108.268 157.971 110.35 157.971H154.94C157.022 157.971 158.71 156.283 158.71 154.201V143.291C158.71 141.209 157.022 139.521 154.94 139.521Z" fill="#42AAF5"/>
<path opacity="0.2" d="M151.84 149.501V147.981C151.84 147.097 151.124 146.381 150.24 146.381H135.79C134.906 146.381 134.19 147.097 134.19 147.981V149.501C134.19 150.384 134.906 151.101 135.79 151.101H150.24C151.124 151.101 151.84 150.384 151.84 149.501Z" fill="white"/>
<path d="M169.54 168.681H124.95C122.868 168.681 121.18 170.369 121.18 172.451V183.361C121.18 185.443 122.868 187.131 124.95 187.131H169.54C171.622 187.131 173.31 185.443 173.31 183.361V172.451C173.31 170.369 171.622 168.681 169.54 168.681Z" fill="#42AAF5"/>
<path opacity="0.2" d="M166.44 178.661V177.141C166.44 176.257 165.724 175.541 164.84 175.541H150.39C149.506 175.541 148.79 176.257 148.79 177.141V178.661C148.79 179.544 149.506 180.261 150.39 180.261H164.84C165.724 180.261 166.44 179.544 166.44 178.661Z" fill="white"/>
<path d="M169.54 197.841H124.95C122.868 197.841 121.18 199.529 121.18 201.611V212.521C121.18 214.603 122.868 216.291 124.95 216.291H169.54C171.622 216.291 173.31 214.603 173.31 212.521V201.611C173.31 199.529 171.622 197.841 169.54 197.841Z" fill="#42AAF5"/>
<path opacity="0.2" d="M166.44 207.821V206.301C166.44 205.417 165.724 204.701 164.84 204.701H150.39C149.506 204.701 148.79 205.417 148.79 206.301V207.821C148.79 208.704 149.506 209.421 150.39 209.421H164.84C165.724 209.421 166.44 208.704 166.44 207.821Z" fill="white"/>
<path d="M169.54 227.001H124.95C122.868 227.001 121.18 228.689 121.18 230.771V241.681C121.18 243.763 122.868 245.451 124.95 245.451H169.54C171.622 245.451 173.31 243.763 173.31 241.681V230.771C173.31 228.689 171.622 227.001 169.54 227.001Z" fill="#42AAF5"/>
<path opacity="0.2" d="M166.44 236.981V235.461C166.44 234.577 165.724 233.861 164.84 233.861H150.39C149.506 233.861 148.79 234.577 148.79 235.461V236.981C148.79 237.864 149.506 238.581 150.39 238.581H164.84C165.724 238.581 166.44 237.864 166.44 236.981Z" fill="white"/>
<path d="M169.54 256.161H124.95C122.868 256.161 121.18 257.849 121.18 259.931V270.841C121.18 272.923 122.868 274.611 124.95 274.611H169.54C171.622 274.611 173.31 272.923 173.31 270.841V259.931C173.31 257.849 171.622 256.161 169.54 256.161Z" fill="#42AAF5"/>
<path opacity="0.2" d="M166.44 266.151V264.631C166.44 263.747 165.724 263.031 164.84 263.031H150.39C149.506 263.031 148.79 263.747 148.79 264.631V266.151C148.79 267.034 149.506 267.751 150.39 267.751H164.84C165.724 267.751 166.44 267.034 166.44 266.151Z" fill="white"/>
<path d="M169.54 285.321H124.95C122.868 285.321 121.18 287.009 121.18 289.091V300.001C121.18 302.083 122.868 303.771 124.95 303.771H169.54C171.622 303.771 173.31 302.083 173.31 300.001V289.091C173.31 287.009 171.622 285.321 169.54 285.321Z" fill="#42AAF5"/>
<path opacity="0.2" d="M166.45 295.311V293.791C166.45 292.907 165.734 292.191 164.85 292.191H150.4C149.516 292.191 148.8 292.907 148.8 293.791V295.311C148.8 296.194 149.516 296.911 150.4 296.911H164.85C165.734 296.911 166.45 296.194 166.45 295.311Z" fill="white"/>
<path d="M112.11 93.4007C113.756 93.4007 115.09 92.0665 115.09 90.4207C115.09 88.7749 113.756 87.4407 112.11 87.4407C110.464 87.4407 109.13 88.7749 109.13 90.4207C109.13 92.0665 110.464 93.4007 112.11 93.4007Z" fill="#42AAF5"/>
<path d="M103.59 93.4007C105.236 93.4007 106.57 92.0665 106.57 90.4207C106.57 88.7749 105.236 87.4407 103.59 87.4407C101.944 87.4407 100.61 88.7749 100.61 90.4207C100.61 92.0665 101.944 93.4007 103.59 93.4007Z" fill="#42AAF5"/>
<path d="M95.08 93.4007C96.7258 93.4007 98.06 92.0665 98.06 90.4207C98.06 88.7749 96.7258 87.4407 95.08 87.4407C93.4342 87.4407 92.1 88.7749 92.1 90.4207C92.1 92.0665 93.4342 93.4007 95.08 93.4007Z" fill="#42AAF5"/>
<path opacity="0.4" d="M95.08 93.4007C96.7258 93.4007 98.06 92.0665 98.06 90.4207C98.06 88.7749 96.7258 87.4407 95.08 87.4407C93.4342 87.4407 92.1 88.7749 92.1 90.4207C92.1 92.0665 93.4342 93.4007 95.08 93.4007Z" fill="white"/>
<path d="M89.54 90.4207C89.54 91.014 89.3641 91.594 89.0345 92.0874C88.7048 92.5807 88.2363 92.9652 87.6881 93.1923C87.1399 93.4194 86.5367 93.4788 85.9548 93.363C85.3728 93.2473 84.8383 92.9615 84.4187 92.542C83.9992 92.1224 83.7134 91.5879 83.5977 91.0059C83.4819 90.424 83.5413 89.8208 83.7684 89.2726C83.9955 88.7244 84.38 88.2559 84.8733 87.9263C85.3667 87.5966 85.9467 87.4207 86.54 87.4207C87.3357 87.4207 88.0988 87.7367 88.6614 88.2993C89.224 88.862 89.54 89.625 89.54 90.4207V90.4207Z" fill="#42AAF5"/>
<path d="M112.11 122.561C113.756 122.561 115.09 121.226 115.09 119.581C115.09 117.935 113.756 116.601 112.11 116.601C110.464 116.601 109.13 117.935 109.13 119.581C109.13 121.226 110.464 122.561 112.11 122.561Z" fill="#42AAF5"/>
<path d="M103.59 122.561C105.236 122.561 106.57 121.226 106.57 119.581C106.57 117.935 105.236 116.601 103.59 116.601C101.944 116.601 100.61 117.935 100.61 119.581C100.61 121.226 101.944 122.561 103.59 122.561Z" fill="#42AAF5"/>
<path d="M95.08 122.561C96.7258 122.561 98.06 121.226 98.06 119.581C98.06 117.935 96.7258 116.601 95.08 116.601C93.4342 116.601 92.1 117.935 92.1 119.581C92.1 121.226 93.4342 122.561 95.08 122.561Z" fill="#42AAF5"/>
<path d="M89.54 119.631C89.54 120.224 89.3641 120.804 89.0345 121.297C88.7048 121.791 88.2363 122.175 87.6881 122.402C87.1399 122.629 86.5367 122.689 85.9548 122.573C85.3728 122.457 84.8383 122.171 84.4187 121.752C83.9992 121.332 83.7134 120.798 83.5977 120.216C83.4819 119.634 83.5413 119.031 83.7684 118.483C83.9955 117.934 84.38 117.466 84.8733 117.136C85.3667 116.807 85.9467 116.631 86.54 116.631C87.3357 116.631 88.0988 116.947 88.6614 117.509C89.224 118.072 89.54 118.835 89.54 119.631V119.631Z" fill="#42AAF5"/>
<path opacity="0.4" d="M89.54 119.631C89.54 120.224 89.3641 120.804 89.0345 121.297C88.7048 121.791 88.2363 122.175 87.6881 122.402C87.1399 122.629 86.5367 122.689 85.9548 122.573C85.3728 122.457 84.8383 122.171 84.4187 121.752C83.9992 121.332 83.7134 120.798 83.5977 120.216C83.4819 119.634 83.5413 119.031 83.7684 118.483C83.9955 117.934 84.38 117.466 84.8733 117.136C85.3667 116.807 85.9467 116.631 86.54 116.631C87.3357 116.631 88.0988 116.947 88.6614 117.509C89.224 118.072 89.54 118.835 89.54 119.631V119.631Z" fill="white"/>
<path d="M97.51 151.721C99.1558 151.721 100.49 150.386 100.49 148.741C100.49 147.095 99.1558 145.761 97.51 145.761C95.8642 145.761 94.53 147.095 94.53 148.741C94.53 150.386 95.8642 151.721 97.51 151.721Z" fill="#42AAF5"/>
<path opacity="0.4" d="M97.51 151.721C99.1558 151.721 100.49 150.386 100.49 148.741C100.49 147.095 99.1558 145.761 97.51 145.761C95.8642 145.761 94.53 147.095 94.53 148.741C94.53 150.386 95.8642 151.721 97.51 151.721Z" fill="white"/>
<path d="M88.99 151.721C90.6358 151.721 91.97 150.386 91.97 148.741C91.97 147.095 90.6358 145.761 88.99 145.761C87.3442 145.761 86.01 147.095 86.01 148.741C86.01 150.386 87.3442 151.721 88.99 151.721Z" fill="#42AAF5"/>
<path d="M80.48 151.721C82.1258 151.721 83.46 150.386 83.46 148.741C83.46 147.095 82.1258 145.761 80.48 145.761C78.8342 145.761 77.5 147.095 77.5 148.741C77.5 150.386 78.8342 151.721 80.48 151.721Z" fill="#42AAF5"/>
<path opacity="0.4" d="M80.48 151.721C82.1258 151.721 83.46 150.386 83.46 148.741C83.46 147.095 82.1258 145.761 80.48 145.761C78.8342 145.761 77.5 147.095 77.5 148.741C77.5 150.386 78.8342 151.721 80.48 151.721Z" fill="white"/>
<path d="M71.96 151.721C73.6058 151.721 74.94 150.386 74.94 148.741C74.94 147.095 73.6058 145.761 71.96 145.761C70.3142 145.761 68.98 147.095 68.98 148.741C68.98 150.386 70.3142 151.721 71.96 151.721Z" fill="#42AAF5"/>
<path d="M112.11 180.881C113.756 180.881 115.09 179.546 115.09 177.901C115.09 176.255 113.756 174.921 112.11 174.921C110.464 174.921 109.13 176.255 109.13 177.901C109.13 179.546 110.464 180.881 112.11 180.881Z" fill="#42AAF5"/>
<path opacity="0.4" d="M112.11 180.881C113.756 180.881 115.09 179.546 115.09 177.901C115.09 176.255 113.756 174.921 112.11 174.921C110.464 174.921 109.13 176.255 109.13 177.901C109.13 179.546 110.464 180.881 112.11 180.881Z" fill="white"/>
<path d="M103.59 180.881C105.236 180.881 106.57 179.546 106.57 177.901C106.57 176.255 105.236 174.921 103.59 174.921C101.944 174.921 100.61 176.255 100.61 177.901C100.61 179.546 101.944 180.881 103.59 180.881Z" fill="#42AAF5"/>
<path opacity="0.4" d="M103.59 180.881C105.236 180.881 106.57 179.546 106.57 177.901C106.57 176.255 105.236 174.921 103.59 174.921C101.944 174.921 100.61 176.255 100.61 177.901C100.61 179.546 101.944 180.881 103.59 180.881Z" fill="white"/>
<path d="M95.08 180.881C96.7258 180.881 98.06 179.546 98.06 177.901C98.06 176.255 96.7258 174.921 95.08 174.921C93.4342 174.921 92.1 176.255 92.1 177.901C92.1 179.546 93.4342 180.881 95.08 180.881Z" fill="#42AAF5"/>
<path d="M89.54 177.901C89.54 178.494 89.3641 179.074 89.0345 179.567C88.7048 180.061 88.2363 180.445 87.6881 180.672C87.1399 180.899 86.5367 180.959 85.9548 180.843C85.3728 180.727 84.8383 180.442 84.4187 180.022C83.9992 179.602 83.7134 179.068 83.5977 178.486C83.4819 177.904 83.5413 177.301 83.7684 176.753C83.9955 176.204 84.38 175.736 84.8733 175.406C85.3667 175.077 85.9467 174.901 86.54 174.901C87.3357 174.901 88.0988 175.217 88.6614 175.779C89.224 176.342 89.54 177.105 89.54 177.901V177.901Z" fill="#42AAF5"/>
<path d="M112.11 210.041C113.756 210.041 115.09 208.706 115.09 207.061C115.09 205.415 113.756 204.081 112.11 204.081C110.464 204.081 109.13 205.415 109.13 207.061C109.13 208.706 110.464 210.041 112.11 210.041Z" fill="#42AAF5"/>
<path d="M103.59 210.041C105.236 210.041 106.57 208.706 106.57 207.061C106.57 205.415 105.236 204.081 103.59 204.081C101.944 204.081 100.61 205.415 100.61 207.061C100.61 208.706 101.944 210.041 103.59 210.041Z" fill="#42AAF5"/>
<path opacity="0.4" d="M103.59 210.041C105.236 210.041 106.57 208.706 106.57 207.061C106.57 205.415 105.236 204.081 103.59 204.081C101.944 204.081 100.61 205.415 100.61 207.061C100.61 208.706 101.944 210.041 103.59 210.041Z" fill="white"/>
<path d="M95.08 210.041C96.7258 210.041 98.06 208.706 98.06 207.061C98.06 205.415 96.7258 204.081 95.08 204.081C93.4342 204.081 92.1 205.415 92.1 207.061C92.1 208.706 93.4342 210.041 95.08 210.041Z" fill="#42AAF5"/>
<path d="M89.54 207.061C89.54 207.654 89.3641 208.234 89.0345 208.727C88.7048 209.221 88.2363 209.605 87.6881 209.832C87.1399 210.059 86.5367 210.119 85.9548 210.003C85.3728 209.887 84.8383 209.602 84.4187 209.182C83.9992 208.762 83.7134 208.228 83.5977 207.646C83.4819 207.064 83.5413 206.461 83.7684 205.913C83.9955 205.364 84.38 204.896 84.8733 204.566C85.3667 204.237 85.9467 204.061 86.54 204.061C87.3357 204.061 88.0988 204.377 88.6614 204.939C89.224 205.502 89.54 206.265 89.54 207.061V207.061Z" fill="#42AAF5"/>
<path d="M112.11 239.201C113.756 239.201 115.09 237.866 115.09 236.221C115.09 234.575 113.756 233.241 112.11 233.241C110.464 233.241 109.13 234.575 109.13 236.221C109.13 237.866 110.464 239.201 112.11 239.201Z" fill="#42AAF5"/>
<path d="M103.59 239.201C105.236 239.201 106.57 237.866 106.57 236.221C106.57 234.575 105.236 233.241 103.59 233.241C101.944 233.241 100.61 234.575 100.61 236.221C100.61 237.866 101.944 239.201 103.59 239.201Z" fill="#42AAF5"/>
<path d="M95.08 239.201C96.7258 239.201 98.06 237.866 98.06 236.221C98.06 234.575 96.7258 233.241 95.08 233.241C93.4342 233.241 92.1 234.575 92.1 236.221C92.1 237.866 93.4342 239.201 95.08 239.201Z" fill="#42AAF5"/>
<path opacity="0.4" d="M95.08 239.201C96.7258 239.201 98.06 237.866 98.06 236.221C98.06 234.575 96.7258 233.241 95.08 233.241C93.4342 233.241 92.1 234.575 92.1 236.221C92.1 237.866 93.4342 239.201 95.08 239.201Z" fill="white"/>
<path d="M89.54 236.221C89.54 236.814 89.3641 237.394 89.0345 237.887C88.7048 238.381 88.2363 238.765 87.6881 238.992C87.1399 239.219 86.5367 239.279 85.9548 239.163C85.3728 239.047 84.8383 238.762 84.4187 238.342C83.9992 237.922 83.7134 237.388 83.5977 236.806C83.4819 236.224 83.5413 235.621 83.7684 235.073C83.9955 234.524 84.38 234.056 84.8733 233.726C85.3667 233.397 85.9467 233.221 86.54 233.221C87.3357 233.221 88.0988 233.537 88.6614 234.099C89.224 234.662 89.54 235.425 89.54 236.221V236.221Z" fill="#42AAF5"/>
<path opacity="0.4" d="M89.54 236.221C89.54 236.814 89.3641 237.394 89.0345 237.887C88.7048 238.381 88.2363 238.765 87.6881 238.992C87.1399 239.219 86.5367 239.279 85.9548 239.163C85.3728 239.047 84.8383 238.762 84.4187 238.342C83.9992 237.922 83.7134 237.388 83.5977 236.806C83.4819 236.224 83.5413 235.621 83.7684 235.073C83.9955 234.524 84.38 234.056 84.8733 233.726C85.3667 233.397 85.9467 233.221 86.54 233.221C87.3357 233.221 88.0988 233.537 88.6614 234.099C89.224 234.662 89.54 235.425 89.54 236.221V236.221Z" fill="white"/>
<path d="M115.09 265.391C115.09 265.984 114.914 266.564 114.584 267.057C114.255 267.551 113.786 267.935 113.238 268.162C112.69 268.389 112.087 268.449 111.505 268.333C110.923 268.217 110.388 267.931 109.969 267.512C109.549 267.092 109.263 266.558 109.148 265.976C109.032 265.394 109.091 264.791 109.318 264.243C109.545 263.694 109.93 263.226 110.423 262.896C110.917 262.567 111.497 262.391 112.09 262.391C112.886 262.391 113.649 262.707 114.211 263.269C114.774 263.832 115.09 264.595 115.09 265.391Z" fill="#42AAF5"/>
<path opacity="0.4" d="M115.09 265.391C115.09 265.984 114.914 266.564 114.584 267.057C114.255 267.551 113.786 267.935 113.238 268.162C112.69 268.389 112.087 268.449 111.505 268.333C110.923 268.217 110.388 267.931 109.969 267.512C109.549 267.092 109.263 266.558 109.148 265.976C109.032 265.394 109.091 264.791 109.318 264.243C109.545 263.694 109.93 263.226 110.423 262.896C110.917 262.567 111.497 262.391 112.09 262.391C112.886 262.391 113.649 262.707 114.211 263.269C114.774 263.832 115.09 264.595 115.09 265.391Z" fill="white"/>
<path d="M106.58 265.391C106.58 265.984 106.404 266.564 106.074 267.057C105.745 267.551 105.276 267.935 104.728 268.162C104.18 268.389 103.577 268.449 102.995 268.333C102.413 268.217 101.878 267.931 101.459 267.512C101.039 267.092 100.753 266.558 100.638 265.976C100.522 265.394 100.581 264.791 100.808 264.243C101.036 263.694 101.42 263.226 101.913 262.896C102.407 262.567 102.987 262.391 103.58 262.391C104.376 262.391 105.139 262.707 105.701 263.269C106.264 263.832 106.58 264.595 106.58 265.391Z" fill="#42AAF5"/>
<path d="M98.0601 265.391C98.0601 265.984 97.8841 266.564 97.5545 267.057C97.2248 267.551 96.7563 267.935 96.2081 268.162C95.6599 268.389 95.0567 268.449 94.4748 268.333C93.8928 268.217 93.3583 267.931 92.9387 267.512C92.5192 267.092 92.2335 266.558 92.1177 265.976C92.0019 265.394 92.0614 264.791 92.2884 264.243C92.5155 263.694 92.9 263.226 93.3934 262.896C93.8867 262.567 94.4667 262.391 95.0601 262.391C95.8557 262.391 96.6188 262.707 97.1814 263.269C97.744 263.832 98.0601 264.595 98.0601 265.391Z" fill="#42AAF5"/>
<path d="M89.54 265.391C89.54 265.984 89.3641 266.564 89.0345 267.057C88.7048 267.551 88.2363 267.935 87.6881 268.162C87.1399 268.389 86.5367 268.449 85.9548 268.333C85.3728 268.217 84.8383 267.931 84.4187 267.512C83.9992 267.092 83.7134 266.558 83.5977 265.976C83.4819 265.394 83.5413 264.791 83.7684 264.243C83.9955 263.694 84.38 263.226 84.8733 262.896C85.3667 262.567 85.9467 262.391 86.54 262.391C87.3357 262.391 88.0988 262.707 88.6614 263.269C89.224 263.832 89.54 264.595 89.54 265.391V265.391Z" fill="#42AAF5"/>
<path d="M112.11 297.531C113.756 297.531 115.09 296.196 115.09 294.551C115.09 292.905 113.756 291.571 112.11 291.571C110.464 291.571 109.13 292.905 109.13 294.551C109.13 296.196 110.464 297.531 112.11 297.531Z" fill="#42AAF5"/>
<path d="M103.59 297.531C105.236 297.531 106.57 296.196 106.57 294.551C106.57 292.905 105.236 291.571 103.59 291.571C101.944 291.571 100.61 292.905 100.61 294.551C100.61 296.196 101.944 297.531 103.59 297.531Z" fill="#42AAF5"/>
<path d="M95.08 297.531C96.7258 297.531 98.06 296.196 98.06 294.551C98.06 292.905 96.7258 291.571 95.08 291.571C93.4342 291.571 92.1 292.905 92.1 294.551C92.1 296.196 93.4342 297.531 95.08 297.531Z" fill="#42AAF5"/>
<path opacity="0.4" d="M95.08 297.531C96.7258 297.531 98.06 296.196 98.06 294.551C98.06 292.905 96.7258 291.571 95.08 291.571C93.4342 291.571 92.1 292.905 92.1 294.551C92.1 296.196 93.4342 297.531 95.08 297.531Z" fill="white"/>
<path d="M89.54 294.551C89.54 295.144 89.3641 295.724 89.0345 296.217C88.7048 296.711 88.2363 297.095 87.6881 297.322C87.1399 297.549 86.5367 297.609 85.9548 297.493C85.3728 297.377 84.8383 297.092 84.4187 296.672C83.9992 296.252 83.7134 295.718 83.5977 295.136C83.4819 294.554 83.5413 293.951 83.7684 293.403C83.9955 292.854 84.38 292.386 84.8733 292.056C85.3667 291.727 85.9467 291.551 86.54 291.551C87.3357 291.551 88.0988 291.867 88.6614 292.429C89.224 292.992 89.54 293.755 89.54 294.551V294.551Z" fill="#42AAF5"/>
<path d="M77.63 90.4206C77.63 91.6987 77.2509 92.9481 76.5406 94.0107C75.8303 95.0732 74.8208 95.9012 73.6398 96.3899C72.4588 96.8785 71.1595 97.0058 69.9061 96.7558C68.6527 96.5057 67.5016 95.8894 66.5986 94.985C65.6955 94.0805 65.0811 92.9286 64.8329 91.6748C64.5848 90.421 64.7142 89.1218 65.2046 87.9416C65.6951 86.7613 66.5247 85.7531 67.5883 85.0445C68.652 84.3359 69.9019 83.9587 71.18 83.9606C72.8916 83.9633 74.5321 84.6451 75.7415 85.8563C76.9508 87.0675 77.63 88.7091 77.63 90.4206V90.4206Z" fill="#42AAF5"/>
<path opacity="0.4" d="M77.63 90.4206C77.63 91.6987 77.2509 92.9481 76.5406 94.0107C75.8303 95.0732 74.8208 95.9012 73.6398 96.3899C72.4588 96.8785 71.1595 97.0058 69.9061 96.7558C68.6527 96.5057 67.5016 95.8894 66.5986 94.985C65.6955 94.0805 65.0811 92.9286 64.8329 91.6748C64.5848 90.421 64.7142 89.1218 65.2046 87.9416C65.6951 86.7613 66.5247 85.7531 67.5883 85.0445C68.652 84.3359 69.9019 83.9587 71.18 83.9606C72.8916 83.9633 74.5321 84.6451 75.7415 85.8563C76.9508 87.0675 77.63 88.7091 77.63 90.4206V90.4206Z" fill="white"/>
<path d="M77.63 119.631C77.63 120.909 77.2509 122.158 76.5406 123.221C75.8303 124.283 74.8208 125.111 73.6398 125.6C72.4588 126.089 71.1595 126.216 69.9061 125.966C68.6527 125.716 67.5016 125.099 66.5986 124.195C65.6955 123.291 65.0811 122.139 64.8329 120.885C64.5848 119.631 64.7142 118.332 65.2046 117.152C65.6951 115.971 66.5247 114.963 67.5883 114.255C68.652 113.546 69.9019 113.169 71.18 113.171C72.8916 113.173 74.5321 113.855 75.7415 115.066C76.9508 116.277 77.63 117.919 77.63 119.631Z" fill="#42AAF5"/>
<path opacity="0.4" d="M77.63 119.631C77.63 120.909 77.2509 122.158 76.5406 123.221C75.8303 124.283 74.8208 125.111 73.6398 125.6C72.4588 126.089 71.1595 126.216 69.9061 125.966C68.6527 125.716 67.5016 125.099 66.5986 124.195C65.6955 123.291 65.0811 122.139 64.8329 120.885C64.5848 119.631 64.7142 118.332 65.2046 117.152C65.6951 115.971 66.5247 114.963 67.5883 114.255C68.652 113.546 69.9019 113.169 71.18 113.171C72.8916 113.173 74.5321 113.855 75.7415 115.066C76.9508 116.277 77.63 117.919 77.63 119.631Z" fill="white"/>
<path d="M63.03 148.741C63.03 150.019 62.6509 151.268 61.9406 152.331C61.2303 153.393 60.2208 154.221 59.0398 154.71C57.8588 155.199 56.5594 155.326 55.306 155.076C54.0526 154.826 52.9016 154.209 51.9985 153.305C51.0955 152.401 50.481 151.249 50.2329 149.995C49.9848 148.741 50.1141 147.442 50.6046 146.262C51.0951 145.081 51.9246 144.073 52.9883 143.364C54.0519 142.656 55.3019 142.279 56.58 142.281C58.2916 142.283 59.9321 142.965 61.1414 144.176C62.3508 145.387 63.03 147.029 63.03 148.741V148.741Z" fill="#42AAF5"/>
<path opacity="0.4" d="M63.03 148.741C63.03 150.019 62.6509 151.268 61.9406 152.331C61.2303 153.393 60.2208 154.221 59.0398 154.71C57.8588 155.199 56.5594 155.326 55.306 155.076C54.0526 154.826 52.9016 154.209 51.9985 153.305C51.0955 152.401 50.481 151.249 50.2329 149.995C49.9848 148.741 50.1141 147.442 50.6046 146.262C51.0951 145.081 51.9246 144.073 52.9883 143.364C54.0519 142.656 55.3019 142.279 56.58 142.281C58.2916 142.283 59.9321 142.965 61.1414 144.176C62.3508 145.387 63.03 147.029 63.03 148.741V148.741Z" fill="white"/>
<path d="M77.63 177.901C77.63 179.179 77.2509 180.428 76.5406 181.491C75.8303 182.553 74.8208 183.381 73.6398 183.87C72.4588 184.359 71.1595 184.486 69.9061 184.236C68.6527 183.986 67.5016 183.369 66.5986 182.465C65.6955 181.561 65.0811 180.409 64.8329 179.155C64.5848 177.901 64.7142 176.602 65.2046 175.422C65.6951 174.241 66.5247 173.233 67.5883 172.525C68.652 171.816 69.9019 171.439 71.18 171.441C72.8916 171.443 74.5321 172.125 75.7415 173.336C76.9508 174.548 77.63 176.189 77.63 177.901V177.901Z" fill="#42AAF5"/>
<path opacity="0.4" d="M77.63 177.901C77.63 179.179 77.2509 180.428 76.5406 181.491C75.8303 182.553 74.8208 183.381 73.6398 183.87C72.4588 184.359 71.1595 184.486 69.9061 184.236C68.6527 183.986 67.5016 183.369 66.5986 182.465C65.6955 181.561 65.0811 180.409 64.8329 179.155C64.5848 177.901 64.7142 176.602 65.2046 175.422C65.6951 174.241 66.5247 173.233 67.5883 172.525C68.652 171.816 69.9019 171.439 71.18 171.441C72.8916 171.443 74.5321 172.125 75.7415 173.336C76.9508 174.548 77.63 176.189 77.63 177.901V177.901Z" fill="white"/>
<path d="M77.63 207.061C77.632 208.339 77.2545 209.59 76.5455 210.653C75.8364 211.717 74.8276 212.547 73.6468 213.037C72.466 213.527 71.1662 213.656 69.9122 213.407C68.6581 213.158 67.5062 212.543 66.6021 211.639C65.6981 210.735 65.0826 209.583 64.8337 208.328C64.5847 207.074 64.7135 205.775 65.2037 204.594C65.6939 203.413 66.5234 202.404 67.5873 201.695C68.6511 200.986 69.9015 200.609 71.18 200.611C72.8899 200.613 74.5289 201.294 75.7379 202.503C76.947 203.712 77.6274 205.351 77.63 207.061V207.061Z" fill="#42AAF5"/>
<path opacity="0.4" d="M77.63 207.061C77.632 208.339 77.2545 209.59 76.5455 210.653C75.8364 211.717 74.8276 212.547 73.6468 213.037C72.466 213.527 71.1662 213.656 69.9122 213.407C68.6581 213.158 67.5062 212.543 66.6021 211.639C65.6981 210.735 65.0826 209.583 64.8337 208.328C64.5847 207.074 64.7135 205.775 65.2037 204.594C65.6939 203.413 66.5234 202.404 67.5873 201.695C68.6511 200.986 69.9015 200.609 71.18 200.611C72.8899 200.613 74.5289 201.294 75.7379 202.503C76.947 203.712 77.6274 205.351 77.63 207.061V207.061Z" fill="white"/>
<path d="M77.63 236.221C77.632 237.499 77.2545 238.749 76.5455 239.813C75.8364 240.877 74.8276 241.707 73.6468 242.197C72.466 242.687 71.1662 242.816 69.9122 242.567C68.6581 242.318 67.5062 241.703 66.6021 240.799C65.6981 239.894 65.0826 238.742 64.8337 237.488C64.5847 236.234 64.7135 234.935 65.2037 233.754C65.6939 232.573 66.5234 231.564 67.5873 230.855C68.6511 230.146 69.9015 229.769 71.18 229.771C72.8899 229.773 74.5289 230.454 75.7379 231.663C76.947 232.872 77.6274 234.511 77.63 236.221V236.221Z" fill="#42AAF5"/>
<path opacity="0.4" d="M77.63 236.221C77.632 237.499 77.2545 238.749 76.5455 239.813C75.8364 240.877 74.8276 241.707 73.6468 242.197C72.466 242.687 71.1662 242.816 69.9122 242.567C68.6581 242.318 67.5062 241.703 66.6021 240.799C65.6981 239.894 65.0826 238.742 64.8337 237.488C64.5847 236.234 64.7135 234.935 65.2037 233.754C65.6939 232.573 66.5234 231.564 67.5873 230.855C68.6511 230.146 69.9015 229.769 71.18 229.771C72.8899 229.773 74.5289 230.454 75.7379 231.663C76.947 232.872 77.6274 234.511 77.63 236.221V236.221Z" fill="white"/>
<path d="M77.63 265.391C77.63 266.669 77.2509 267.918 76.5406 268.981C75.8303 270.043 74.8208 270.871 73.6398 271.36C72.4588 271.849 71.1595 271.976 69.9061 271.726C68.6527 271.476 67.5016 270.86 66.5986 269.955C65.6955 269.051 65.0811 267.899 64.8329 266.645C64.5848 265.391 64.7142 264.092 65.2046 262.912C65.6951 261.731 66.5247 260.723 67.5883 260.015C68.652 259.306 69.9019 258.929 71.18 258.931C72.0279 258.931 72.8674 259.098 73.6506 259.423C74.4338 259.747 75.1453 260.223 75.7444 260.823C76.3435 261.423 76.8184 262.136 77.1419 262.919C77.4655 263.703 77.6313 264.543 77.63 265.391V265.391Z" fill="#42AAF5"/>
<path opacity="0.4" d="M77.63 265.391C77.63 266.669 77.2509 267.918 76.5406 268.981C75.8303 270.043 74.8208 270.871 73.6398 271.36C72.4588 271.849 71.1595 271.976 69.9061 271.726C68.6527 271.476 67.5016 270.86 66.5986 269.955C65.6955 269.051 65.0811 267.899 64.8329 266.645C64.5848 265.391 64.7142 264.092 65.2046 262.912C65.6951 261.731 66.5247 260.723 67.5883 260.015C68.652 259.306 69.9019 258.929 71.18 258.931C72.0279 258.931 72.8674 259.098 73.6506 259.423C74.4338 259.747 75.1453 260.223 75.7444 260.823C76.3435 261.423 76.8184 262.136 77.1419 262.919C77.4655 263.703 77.6313 264.543 77.63 265.391V265.391Z" fill="white"/>
<path d="M77.63 294.551C77.63 295.829 77.2509 297.078 76.5406 298.141C75.8303 299.203 74.8208 300.031 73.6398 300.52C72.4588 301.009 71.1595 301.136 69.9061 300.886C68.6527 300.636 67.5016 300.019 66.5986 299.115C65.6955 298.211 65.0811 297.059 64.8329 295.805C64.5848 294.551 64.7142 293.252 65.2046 292.072C65.6951 290.891 66.5247 289.883 67.5883 289.175C68.652 288.466 69.9019 288.089 71.18 288.091C72.0279 288.091 72.8674 288.258 73.6506 288.583C74.4338 288.907 75.1453 289.383 75.7444 289.983C76.3435 290.583 76.8184 291.296 77.1419 292.079C77.4655 292.863 77.6313 293.703 77.63 294.551V294.551Z" fill="#42AAF5"/>
<path opacity="0.4" d="M77.63 294.551C77.63 295.829 77.2509 297.078 76.5406 298.141C75.8303 299.203 74.8208 300.031 73.6398 300.52C72.4588 301.009 71.1595 301.136 69.9061 300.886C68.6527 300.636 67.5016 300.019 66.5986 299.115C65.6955 298.211 65.0811 297.059 64.8329 295.805C64.5848 294.551 64.7142 293.252 65.2046 292.072C65.6951 290.891 66.5247 289.883 67.5883 289.175C68.652 288.466 69.9019 288.089 71.18 288.091C72.0279 288.091 72.8674 288.258 73.6506 288.583C74.4338 288.907 75.1453 289.383 75.7444 289.983C76.3435 290.583 76.8184 291.296 77.1419 292.079C77.4655 292.863 77.6313 293.703 77.63 294.551V294.551Z" fill="white"/>
</g>
<g filter="url(#filter1_d_16_1450)">
<path d="M255.612 109.645C254.851 109.639 226.531 122.729 224.861 154.928C223.33 184.529 243.811 212.633 246.455 210.772C249.689 208.491 244.185 190.053 250.459 168.951C252.686 161.466 262.441 154.829 262.441 154.829L255.612 109.645Z" fill="#42AAF5"/>
<path opacity="0.1" d="M262.445 154.814C259.607 156.832 257.014 159.174 254.719 161.793C250.502 152.387 242.64 134.835 237.553 123.455C245.845 113.863 255.206 109.625 255.619 109.606L262.445 154.814Z" fill="black"/>
<path d="M327.705 109.669C328.466 109.666 356.781 122.773 358.421 154.974C359.936 184.579 339.435 212.666 336.793 210.803C333.56 208.52 339.082 190.082 332.817 168.978C330.593 161.497 320.847 154.843 320.847 154.843L327.705 109.669Z" fill="#42AAF5"/>
<path opacity="0.1" d="M345.871 123.648L328.717 162.017C326.381 159.328 323.733 156.927 320.829 154.864L327.687 109.69C328.139 109.668 337.601 113.924 345.871 123.648Z" fill="black"/>
<path d="M313.104 183.694L270.361 183.68C270.361 183.68 250.231 147.655 252.581 104.754C253.772 83.3271 259.346 61.7749 266.104 43.8984C275.372 19.2368 286.844 1.75972 291.797 1.74895C296.75 1.73817 308.199 19.2737 317.487 43.9172C324.183 61.7691 329.76 83.354 330.941 104.782C333.279 147.708 313.104 183.694 313.104 183.694Z" fill="#C7C7C7"/>
<path d="M317.346 99.2293C317.347 104.106 315.901 108.873 313.192 112.927C310.483 116.982 306.632 120.142 302.127 122.008C297.621 123.873 292.664 124.36 287.881 123.408C283.099 122.455 278.706 120.105 275.26 116.656C271.813 113.206 269.467 108.811 268.518 104.028C267.57 99.2449 268.061 94.2877 269.931 89.7838C271.8 85.2799 274.963 81.4318 279.02 78.7261C283.077 76.0205 287.846 74.5789 292.722 74.5839C299.254 74.5924 305.515 77.1924 310.132 81.8131C314.749 86.4337 317.343 92.6975 317.346 99.2293V99.2293Z" fill="white"/>
<path d="M316.472 96.719C316.47 101.594 315.022 106.359 312.312 110.412C309.602 114.464 305.751 117.622 301.247 119.486C296.742 121.35 291.785 121.837 287.004 120.884C282.223 119.931 277.832 117.581 274.386 114.133C270.94 110.684 268.594 106.291 267.645 101.509C266.695 96.7274 267.185 91.7714 269.053 87.268C270.92 82.7647 274.081 78.9162 278.136 76.2092C282.19 73.5022 286.957 72.0584 291.832 72.0603C298.369 72.0647 304.636 74.6646 309.257 79.2886C313.877 83.9126 316.472 90.1822 316.472 96.719V96.719Z" fill="#42AAF5"/>
<path d="M308.915 96.7042C308.918 100.087 307.918 103.394 306.042 106.208C304.165 109.022 301.496 111.216 298.372 112.512C295.248 113.808 291.809 114.149 288.492 113.491C285.174 112.832 282.126 111.205 279.734 108.814C277.342 106.423 275.712 103.376 275.052 100.059C274.392 96.7413 274.731 93.3028 276.026 90.178C277.32 87.0533 279.513 84.3829 282.325 82.5046C285.138 80.6263 288.445 79.6246 291.827 79.6262C296.357 79.6284 300.701 81.4281 303.904 84.6301C307.108 87.8321 308.91 92.1747 308.915 96.7042V96.7042Z" fill="white"/>
<path d="M308.919 96.6988C308.923 98.8176 308.533 100.918 307.768 102.894L298.011 112.661C296.037 113.427 293.937 113.818 291.819 113.813C290.274 113.817 288.736 113.608 287.248 113.192L308.273 92.1443C308.695 93.6258 308.913 95.1582 308.919 96.6988V96.6988Z" fill="#EBEBEB"/>
<path d="M294.321 79.8022L274.916 99.2281C274.79 98.3981 274.726 97.5598 274.725 96.7203C274.726 92.1902 276.525 87.8455 279.727 84.6414C282.93 81.4372 287.273 79.6357 291.803 79.6328C292.646 79.6253 293.487 79.6819 294.321 79.8022V79.8022Z" fill="#EBEBEB"/>
<path d="M306.782 88.4253L283.555 111.664C283.102 111.422 282.663 111.155 282.24 110.864L305.987 87.1286C306.259 87.531 306.525 87.9729 306.782 88.4253Z" fill="#EBEBEB"/>
<path d="M317.487 43.9173L266.088 43.8852C275.372 19.2369 286.844 1.75983 291.797 1.74905C296.75 1.73828 308.216 19.2528 317.487 43.9173Z" fill="#42AAF5"/>
<path d="M274.947 38.5901C274.948 38.8748 274.864 39.1532 274.707 39.3901C274.549 39.6271 274.324 39.8119 274.062 39.9212C273.799 40.0304 273.51 40.0593 273.23 40.004C272.951 39.9487 272.695 39.8118 272.493 39.6106C272.292 39.4094 272.155 39.153 272.099 38.8738C272.044 38.5947 272.073 38.3053 272.182 38.0425C272.291 37.7796 272.475 37.555 272.712 37.3971C272.949 37.2393 273.227 37.1552 273.512 37.1557C273.892 37.1563 274.257 37.3076 274.526 37.5765C274.795 37.8453 274.947 38.2098 274.947 38.5901V38.5901Z" fill="white"/>
<path d="M284.09 38.597C284.093 38.7881 284.059 38.9779 283.988 39.1555C283.917 39.333 283.811 39.4946 283.677 39.6308C283.543 39.7671 283.384 39.8752 283.207 39.949C283.031 40.0228 282.842 40.0606 282.651 40.0604C282.459 40.0602 282.27 40.0219 282.094 39.9477C281.918 39.8735 281.759 39.7649 281.625 39.6284C281.491 39.4918 281.386 39.3299 281.316 39.1523C281.245 38.9746 281.211 38.7847 281.215 38.5936C281.222 38.2171 281.377 37.8585 281.647 37.5951C281.916 37.3317 282.277 37.1843 282.654 37.1848C283.031 37.1852 283.392 37.3334 283.661 37.5975C283.929 37.8616 284.083 38.2205 284.09 38.597V38.597Z" fill="white"/>
<path d="M293.227 38.5996C293.222 38.8816 293.133 39.1558 292.973 39.3879C292.812 39.62 292.587 39.7998 292.326 39.905C292.064 40.0102 291.777 40.036 291.501 39.9793C291.224 39.9226 290.971 39.7859 290.772 39.5862C290.572 39.3864 290.436 39.1325 290.38 38.856C290.324 38.5796 290.351 38.2927 290.457 38.0313C290.563 37.7698 290.743 37.5452 290.976 37.3856C291.208 37.2259 291.483 37.1381 291.765 37.1332C291.958 37.1289 292.151 37.1639 292.33 37.2361C292.51 37.3083 292.673 37.4162 292.81 37.5533C292.947 37.6904 293.054 37.8538 293.126 38.0337C293.198 38.2135 293.232 38.406 293.227 38.5996V38.5996Z" fill="white"/>
<path d="M302.374 38.6013C302.369 38.8834 302.282 39.1579 302.122 39.3906C301.963 39.6233 301.739 39.8039 301.477 39.91C301.216 40.0161 300.929 40.0429 300.652 39.9871C300.376 39.9314 300.122 39.7955 299.922 39.5964C299.722 39.3973 299.585 39.1438 299.528 38.8675C299.471 38.5911 299.497 38.3042 299.602 38.0423C299.707 37.7805 299.887 37.5553 300.119 37.3949C300.351 37.2345 300.625 37.1459 300.907 37.1401C301.1 37.1362 301.292 37.1713 301.472 37.2432C301.651 37.3152 301.814 37.4226 301.951 37.559C302.088 37.6954 302.196 37.858 302.269 38.037C302.341 38.2161 302.377 38.408 302.374 38.6013V38.6013Z" fill="white"/>
<path d="M311.539 38.5821C311.539 38.8664 311.454 39.1441 311.296 39.3804C311.138 39.6166 310.914 39.8008 310.651 39.9095C310.389 40.0182 310.1 40.0467 309.821 39.9914C309.542 39.936 309.286 39.7993 309.085 39.5984C308.884 39.3976 308.747 39.1417 308.691 38.863C308.636 38.5843 308.664 38.2953 308.772 38.0326C308.88 37.7699 309.064 37.5452 309.3 37.3869C309.536 37.2286 309.814 37.1438 310.098 37.1433C310.287 37.1429 310.475 37.1798 310.65 37.252C310.825 37.3241 310.983 37.4301 311.117 37.5638C311.251 37.6974 311.357 37.8562 311.43 38.0309C311.502 38.2057 311.539 38.393 311.539 38.5821Z" fill="white"/>
<path d="M274.919 177.127C274.912 177.503 274.757 177.862 274.487 178.125C274.218 178.389 273.857 178.536 273.48 178.536C273.103 178.535 272.742 178.387 272.473 178.123C272.205 177.859 272.051 177.5 272.044 177.123C272.041 176.932 272.075 176.743 272.146 176.565C272.217 176.388 272.323 176.226 272.457 176.09C272.591 175.953 272.75 175.845 272.927 175.771C273.103 175.698 273.292 175.66 273.483 175.66C273.674 175.66 273.864 175.699 274.04 175.773C274.216 175.847 274.375 175.956 274.509 176.092C274.643 176.229 274.748 176.391 274.818 176.568C274.889 176.746 274.923 176.936 274.919 177.127V177.127Z" fill="white"/>
<path d="M284.084 177.108C284.079 177.39 283.992 177.664 283.832 177.897C283.673 178.13 283.448 178.31 283.187 178.416C282.926 178.522 282.639 178.549 282.362 178.494C282.086 178.438 281.832 178.302 281.632 178.103C281.432 177.904 281.295 177.65 281.238 177.374C281.181 177.098 281.207 176.811 281.312 176.549C281.417 176.287 281.597 176.062 281.829 175.901C282.061 175.741 282.335 175.652 282.617 175.647C282.81 175.643 283.002 175.678 283.182 175.75C283.361 175.822 283.524 175.929 283.661 176.065C283.798 176.202 283.906 176.364 283.979 176.543C284.051 176.723 284.087 176.914 284.084 177.108Z" fill="white"/>
<path d="M293.237 177.123C293.237 177.408 293.152 177.685 292.994 177.922C292.836 178.158 292.612 178.342 292.349 178.451C292.087 178.56 291.798 178.588 291.519 178.533C291.24 178.477 290.984 178.341 290.783 178.14C290.582 177.939 290.445 177.683 290.389 177.404C290.334 177.126 290.362 176.837 290.47 176.574C290.578 176.311 290.762 176.086 290.998 175.928C291.234 175.77 291.512 175.685 291.796 175.685C291.985 175.684 292.173 175.721 292.348 175.793C292.522 175.865 292.681 175.971 292.815 176.105C292.949 176.239 293.055 176.397 293.128 176.572C293.2 176.747 293.237 176.934 293.237 177.123V177.123Z" fill="white"/>
<path d="M302.364 177.117C302.359 177.399 302.272 177.674 302.112 177.906C301.953 178.139 301.728 178.32 301.467 178.426C301.205 178.532 300.919 178.559 300.642 178.503C300.365 178.447 300.111 178.311 299.912 178.112C299.712 177.913 299.575 177.66 299.518 177.383C299.461 177.107 299.487 176.82 299.592 176.558C299.697 176.296 299.877 176.071 300.109 175.911C300.341 175.75 300.615 175.662 300.897 175.656C301.09 175.652 301.282 175.687 301.462 175.759C301.641 175.831 301.804 175.938 301.941 176.075C302.078 176.211 302.186 176.374 302.259 176.553C302.331 176.732 302.367 176.924 302.364 177.117V177.117Z" fill="white"/>
<path d="M311.501 177.12C311.495 177.402 311.407 177.676 311.247 177.908C311.086 178.14 310.861 178.32 310.6 178.425C310.338 178.53 310.051 178.556 309.775 178.499C309.498 178.443 309.245 178.306 309.046 178.106C308.846 177.906 308.71 177.652 308.654 177.376C308.598 177.1 308.625 176.813 308.731 176.551C308.837 176.29 309.017 176.065 309.25 175.906C309.482 175.746 309.757 175.658 310.039 175.653C310.232 175.649 310.425 175.684 310.604 175.756C310.784 175.828 310.947 175.936 311.084 176.073C311.221 176.21 311.328 176.374 311.4 176.554C311.471 176.733 311.506 176.926 311.501 177.12V177.12Z" fill="white"/>
<path opacity="0.2" d="M290.051 2.30697C278.719 17.791 266.109 50.5605 264.405 94.8479C263.139 127.571 277.939 164.784 286.668 183.685L270.361 183.68C270.361 183.68 250.231 147.655 252.581 104.754C253.772 83.3271 259.346 61.7749 266.104 43.8984C274.405 21.7907 284.472 5.45867 290.051 2.30697Z" fill="white"/>
<path d="M309.165 196.547L274.407 196.531L272.777 183.682L310.801 183.698L309.165 196.547Z" fill="#42AAF5"/>
<path opacity="0.1" d="M310.801 183.698L310.001 189.957L273.4 188.595L272.782 183.686L310.801 183.698Z" fill="black"/>
</g>
<g filter="url(#filter2_d_16_1450)">
<path d="M296.881 208.771H287.5V304.23H296.881C303.149 304.23 309.356 302.995 315.147 300.597C320.937 298.198 326.199 294.682 330.631 290.25C335.063 285.818 338.579 280.556 340.978 274.766C343.376 268.975 344.611 262.768 344.611 256.5C344.611 250.232 343.376 244.026 340.978 238.235C338.579 232.444 335.063 227.182 330.631 222.75C326.199 218.318 320.937 214.802 315.147 212.404C309.356 210.005 303.149 208.771 296.881 208.771V208.771Z" fill="#42AAF5"/>
<path opacity="0.1" d="M296.881 208.771H287.5V304.23H296.881C303.149 304.23 309.356 302.995 315.147 300.597C320.937 298.198 326.199 294.682 330.631 290.25C335.063 285.818 338.579 280.556 340.978 274.766C343.376 268.975 344.611 262.768 344.611 256.5C344.611 250.232 343.376 244.026 340.978 238.235C338.579 232.444 335.063 227.182 330.631 222.75C326.199 218.318 320.937 214.802 315.147 212.404C309.356 210.005 303.149 208.771 296.881 208.771V208.771Z" fill="black"/>
<path d="M265.819 212.781L265.628 212.403C268.946 210.75 272.441 209.48 276.046 208.618L276.143 209.043C272.572 209.895 269.108 211.149 265.819 212.781V212.781Z" fill="#42AAF5"/>
<path d="M260.304 216.006L260.071 215.653C260.984 215.042 261.927 214.447 262.875 213.899L263.087 214.264C262.148 214.812 261.213 215.398 260.304 216.006Z" fill="#42AAF5"/>
<path d="M321.25 290.25C339.89 271.61 339.89 241.39 321.25 222.75C302.61 204.11 272.39 204.11 253.75 222.75C235.11 241.39 235.11 271.61 253.75 290.25C272.39 308.89 302.61 308.89 321.25 290.25Z" fill="#42AAF5"/>
<path opacity="0.1" d="M316.625 230.745C309.213 224.174 299.573 220.68 289.673 220.977C279.773 221.273 270.359 225.336 263.354 232.338C256.348 239.34 252.28 248.751 251.978 258.651C251.677 268.551 255.165 278.193 261.732 285.608C257.764 282.09 254.557 277.798 252.31 272.995C250.062 268.192 248.821 262.981 248.663 257.68C248.504 252.38 249.432 247.103 251.388 242.175C253.344 237.246 256.289 232.77 260.039 229.022C263.79 225.273 268.267 222.331 273.197 220.378C278.127 218.424 283.404 217.499 288.704 217.661C294.004 217.822 299.215 219.066 304.017 221.316C308.819 223.566 313.109 226.775 316.625 230.745V230.745Z" fill="black"/>
<path d="M308.12 246.336C307.817 246.64 307.4 246.818 306.957 246.818L266.847 246.818C266.114 246.818 265.748 245.931 266.266 245.412L274.189 237.468C274.492 237.164 274.909 236.987 275.352 236.987L315.462 236.987C316.195 236.987 316.562 237.874 316.043 238.393L308.12 246.336Z" fill="white"/>
<path d="M308.12 275.995C307.804 276.299 307.387 276.476 306.957 276.476L266.847 276.476C266.114 276.476 265.748 275.589 266.266 275.07L274.189 267.126C274.492 266.822 274.909 266.645 275.352 266.645L315.462 266.645C316.195 266.645 316.562 267.532 316.043 268.051L308.12 275.995Z" fill="white"/>
<path d="M274.189 261.261C274.492 261.565 274.909 261.742 275.352 261.742L315.462 261.742C316.195 261.742 316.562 260.855 316.043 260.336L308.12 252.393C307.817 252.089 307.4 251.911 306.957 251.911L266.847 251.911C266.114 251.911 265.747 252.798 266.266 253.317L274.189 261.261Z" fill="white"/>
</g>
<defs>
<filter id="filter0_d_16_1450" x="40.95" y="72.6606" width="167.08" height="259.12" filterUnits="userSpaceOnUse" color-interpolation-filters="sRGB">
<feFlood flood-opacity="0" result="BackgroundImageFix"/>
<feColorMatrix in="SourceAlpha" type="matrix" values="0 0 0 0 0 0 0 0 0 0 0 0 0 0 0 0 0 0 127 0" result="hardAlpha"/>
<feOffset dy="4"/>
<feGaussianBlur stdDeviation="2"/>
<feComposite in2="hardAlpha" operator="out"/>
<feColorMatrix type="matrix" values="0 0 0 0 0 0 0 0 0 0 0 0 0 0 0 0 0 0 0.25 0"/>
<feBlend mode="normal" in2="BackgroundImageFix" result="effect1_dropShadow_16_1450"/>
<feBlend mode="normal" in="SourceGraphic" in2="effect1_dropShadow_16_1450" result="shape"/>
</filter>
<filter id="filter1_d_16_1450" x="220.78" y="1.74896" width="141.721" height="217.142" filterUnits="userSpaceOnUse" color-interpolation-filters="sRGB">
<feFlood flood-opacity="0" result="BackgroundImageFix"/>
<feColorMatrix in="SourceAlpha" type="matrix" values="0 0 0 0 0 0 0 0 0 0 0 0 0 0 0 0 0 0 127 0" result="hardAlpha"/>
<feOffset dy="4"/>
<feGaussianBlur stdDeviation="2"/>
<feComposite in2="hardAlpha" operator="out"/>
<feColorMatrix type="matrix" values="0 0 0 0 0 0 0 0 0 0 0 0 0 0 0 0 0 0 0.25 0"/>
<feBlend mode="normal" in2="BackgroundImageFix" result="effect1_dropShadow_16_1450"/>
<feBlend mode="normal" in="SourceGraphic" in2="effect1_dropShadow_16_1450" result="shape"/>
</filter>
<filter id="filter2_d_16_1450" x="235.77" y="208.618" width="112.841" height="103.612" filterUnits="userSpaceOnUse" color-interpolation-filters="sRGB">
<feFlood flood-opacity="0" result="BackgroundImageFix"/>
<feColorMatrix in="SourceAlpha" type="matrix" values="0 0 0 0 0 0 0 0 0 0 0 0 0 0 0 0 0 0 127 0" result="hardAlpha"/>
<feOffset dy="4"/>
<feGaussianBlur stdDeviation="2"/>
<feComposite in2="hardAlpha" operator="out"/>
<feColorMatrix type="matrix" values="0 0 0 0 0 0 0 0 0 0 0 0 0 0 0 0 0 0 0.25 0"/>
<feBlend mode="normal" in2="BackgroundImageFix" result="effect1_dropShadow_16_1450"/>
<feBlend mode="normal" in="SourceGraphic" in2="effect1_dropShadow_16_1450" result="shape"/>
</filter>
</defs>
</svg>
