<?xml version="1.0" encoding="utf-8"?>
<svg width="310" height="310" viewBox="0 0 310 310" fill="none" xmlns="http://www.w3.org/2000/svg">
  <path d="M 264.602 264.602 C 325.133 204.07 325.133 105.93 264.602 45.398 C 204.07 -15.133 105.93 -15.133 45.398 45.398 C -15.133 105.93 -15.133 204.07 45.398 264.602 C 105.93 325.133 204.07 325.133 264.602 264.602 Z" fill="#004C99"/>
  <g opacity="0.8" transform="matrix(1.414214, 0, 0, 1.414214, -64.203156, -64.203156)">
    <path opacity="0.8" fill-rule="evenodd" clip-rule="evenodd" d="M215.194 173.126C213.629 178.501 211.35 183.642 208.418 188.412L216.379 201.718L197.828 219.431L184.898 210.849C179.995 213.553 174.752 215.589 169.309 216.902L165.523 232L139.879 231.393L136.816 216.108C131.439 214.536 126.294 212.258 121.516 209.332L108.21 217.292L90.4972 198.771L99.079 185.854C96.3788 180.946 94.3477 175.698 93.0399 170.251L78 166.48L78.6068 140.821L93.8056 137.758C95.3659 132.384 97.64 127.243 100.567 122.473L92.6065 109.195L111.172 91.4972L124.088 100.079C128.996 97.3743 134.243 95.3383 139.691 94.0255L143.462 79L169.121 79.6068L172.184 94.7479C177.561 96.3193 182.706 98.5978 187.484 101.524L200.79 93.5632L218.488 112.085L209.95 125.088C212.644 129.999 214.675 135.246 215.989 140.691L231.014 144.462L230.408 170.107L215.223 173.184L215.194 173.126ZM181.965 157.234C182.095 151.791 180.608 146.432 177.692 141.835C174.776 137.238 170.562 133.609 165.583 131.406C160.605 129.204 155.085 128.528 149.722 129.463C144.359 130.398 139.393 132.903 135.454 136.661C131.514 140.418 128.778 145.26 127.59 150.573C126.403 155.886 126.817 161.431 128.782 166.509C130.746 171.586 134.173 175.966 138.627 179.096C143.081 182.226 148.364 183.964 153.807 184.092C157.421 184.188 161.019 183.569 164.394 182.27C167.769 180.971 170.853 179.019 173.471 176.525C176.089 174.03 178.188 171.043 179.648 167.735C181.109 164.427 181.901 160.863 181.979 157.248L181.965 157.234Z" fill="white"/>
  </g>
</svg>