<svg width="92" height="92" viewBox="0 0 92 92" fill="none" xmlns="http://www.w3.org/2000/svg">
<path d="M92 46C92 71.4051 71.4051 92 46 92C20.5949 92 0 71.4051 0 46C0 20.5949 20.5949 0 46 0C71.4051 0 92 20.5949 92 46Z" fill="#ED1343"/>
<path d="M62.2015 36.7602C61.9119 37.0451 61.5136 37.2113 61.0913 37.2113L22.7869 37.2113C22.0869 37.2113 21.7369 36.3804 22.2317 35.8937L29.7985 28.4511C30.0881 28.1662 30.4864 28 30.9088 28L69.2131 28C69.9131 28 70.2631 28.8309 69.7683 29.3176L62.2015 36.7602Z" fill="white"/>
<path d="M62.2015 64.5489C61.8998 64.8338 61.5016 65 61.0913 65L22.7869 65C22.0869 65 21.737 64.1691 22.2318 63.6824L29.7985 56.2398C30.0881 55.9549 30.4864 55.7887 30.9088 55.7887L69.2131 55.7887C69.9131 55.7887 70.2631 56.6196 69.7683 57.1063L62.2015 64.5489Z" fill="white"/>
<path d="M29.7985 50.7438C30.0881 51.0287 30.4864 51.1948 30.9087 51.1948L69.2131 51.1948C69.9131 51.1948 70.2631 50.3639 69.7683 49.8773L62.2015 42.4346C61.9119 42.1497 61.5136 41.9836 61.0913 41.9836L22.7869 41.9836C22.0869 41.9836 21.7369 42.8145 22.2317 43.3011L29.7985 50.7438Z" fill="white"/>
</svg>
