<svg width="282" height="104" viewBox="0 0 282 104" fill="none" xmlns="http://www.w3.org/2000/svg">
<path d="M95.9999 53.8555C95.9999 54.8444 96.2931 55.8111 96.8425 56.6334C97.3919 57.4556 98.1729 58.0965 99.0865 58.4749C100 58.8533 101.005 58.9523 101.975 58.7594C102.945 58.5665 103.836 58.0903 104.535 57.391C105.235 56.6918 105.711 55.8009 105.904 54.831C106.097 53.8611 105.998 52.8558 105.619 51.9421C105.241 51.0285 104.6 50.2476 103.778 49.6982C102.956 49.1488 101.989 48.8555 101 48.8555C99.6738 48.8555 98.4021 49.3823 97.4644 50.32C96.5267 51.2577 95.9999 52.5294 95.9999 53.8555V53.8555Z" fill="white"/>
<path d="M60.1 78.6C61.1 81 61.6 82.7333 61.6 83.8C61.6 86.3333 59.5333 88.4667 55.4 90.2C53.2667 91.1333 51.5333 91.6 50.2 91.6C48.9333 91.6 47.8667 91.3 47 90.7C46.2 90.0333 45.6 89.3667 45.2 88.7C44.5333 87.4333 41.9333 81.4 37.4 70.6L34.3 70.8H21.7V82.1C21.7 83.6333 21.6333 84.8 21.5 85.6C21.4333 86.3333 21.1333 87.2 20.6 88.2C19.6667 90 17.0667 90.9 12.8 90.9C8.13333 90.9 5.4 89.6667 4.6 87.2C4.2 86.0667 4 84.3333 4 82V26.5C4 24.9667 4.03333 23.8333 4.1 23.1C4.23333 22.3 4.56667 21.4 5.1 20.4C6.03333 18.6 8.63333 17.7 12.9 17.7H34.5C40.3667 17.7 46.0667 19.8333 51.6 24.1C54.2667 26.1667 56.4667 28.9667 58.2 32.5C59.9333 36.0333 60.8 39.9667 60.8 44.3C60.8 51.8333 58.3 58.0333 53.3 62.9C54.7667 66.4333 57.0333 71.6667 60.1 78.6ZM21.7 53.1H34.5C36.4333 53.1 38.3667 52.3667 40.3 50.9C42.2333 49.4333 43.2 47.2333 43.2 44.3C43.2 41.3667 42.2333 39.1667 40.3 37.7C38.3667 36.1667 36.3667 35.4 34.3 35.4H21.7V53.1ZM100.509 16.8C110.376 16.8 118.943 20.3667 126.209 27.5C133.476 34.6333 137.109 43.5 137.109 54.1C137.109 64.6333 133.643 73.6333 126.709 81.1C119.776 88.5 111.243 92.2 101.109 92.2C90.976 92.2 82.3427 88.5333 75.2094 81.2C68.1427 73.8667 64.6094 65.1333 64.6094 55C64.6094 49.4667 65.6094 44.3 67.6094 39.5C69.6094 34.6333 72.276 30.5667 75.6094 27.3C78.9427 24.0333 82.776 21.4667 87.1094 19.6C91.4427 17.7333 95.9094 16.8 100.509 16.8ZM82.3094 54.5C82.3094 60.4333 84.2094 65.2667 88.0094 69C91.876 72.6667 96.176 74.5 100.909 74.5C105.643 74.5 109.909 72.7 113.709 69.1C117.509 65.5 119.409 60.6667 119.409 54.6C119.409 48.5333 117.476 43.6667 113.609 40C109.809 36.3333 105.543 34.5 100.809 34.5C96.076 34.5 91.8094 36.3667 88.0094 40.1C84.2094 43.7667 82.3094 48.5667 82.3094 54.5ZM144.748 80.7C143.015 78.5667 142.148 76.6667 142.148 75C142.148 73.2667 143.582 71 146.448 68.2C148.115 66.6 149.882 65.8 151.748 65.8C153.615 65.8 156.215 67.4667 159.548 70.8C160.482 71.9333 161.815 73.0333 163.548 74.1C165.282 75.1 166.882 75.6 168.348 75.6C174.548 75.6 177.648 73.0667 177.648 68C177.648 66.4667 176.782 65.2 175.048 64.2C173.382 63.1333 171.282 62.3667 168.748 61.9C166.215 61.4333 163.482 60.7 160.548 59.7C157.615 58.6333 154.882 57.4 152.348 56C149.815 54.6 147.682 52.4 145.948 49.4C144.282 46.3333 143.448 42.6667 143.448 38.4C143.448 32.5333 145.615 27.4333 149.948 23.1C154.348 18.7 160.315 16.5 167.848 16.5C171.848 16.5 175.482 17.0333 178.748 18.1C182.082 19.1 184.382 20.1333 185.648 21.2L188.148 23.1C190.215 25.0333 191.248 26.6667 191.248 28C191.248 29.3333 190.448 31.1667 188.848 33.5C186.582 36.8333 184.248 38.5 181.848 38.5C180.448 38.5 178.715 37.8333 176.648 36.5C176.448 36.3667 176.048 36.0333 175.448 35.5C174.915 34.9667 174.415 34.5333 173.948 34.2C172.548 33.3333 170.748 32.9 168.548 32.9C166.415 32.9 164.615 33.4333 163.148 34.5C161.748 35.5 161.048 36.9333 161.048 38.8C161.048 40.6 161.882 42.0667 163.548 43.2C165.282 44.3333 167.415 45.1 169.948 45.5C172.482 45.9 175.248 46.5333 178.248 47.4C181.248 48.2 184.015 49.2 186.548 50.4C189.082 51.6 191.182 53.7 192.848 56.7C194.582 59.6333 195.448 63.2667 195.448 67.6C195.448 71.9333 194.582 75.7667 192.848 79.1C191.115 82.3667 188.848 84.9 186.048 86.7C180.648 90.2333 174.882 92 168.748 92C165.615 92 162.648 91.6333 159.848 90.9C157.048 90.1 154.782 89.1333 153.048 88C149.515 85.8667 147.048 83.8 145.648 81.8L144.748 80.7ZM203.049 80.7C201.316 78.5667 200.449 76.6667 200.449 75C200.449 73.2667 201.883 71 204.749 68.2C206.416 66.6 208.183 65.8 210.049 65.8C211.916 65.8 214.516 67.4667 217.849 70.8C218.783 71.9333 220.116 73.0333 221.849 74.1C223.583 75.1 225.183 75.6 226.649 75.6C232.849 75.6 235.949 73.0667 235.949 68C235.949 66.4667 235.083 65.2 233.349 64.2C231.683 63.1333 229.583 62.3667 227.049 61.9C224.516 61.4333 221.783 60.7 218.849 59.7C215.916 58.6333 213.183 57.4 210.649 56C208.116 54.6 205.983 52.4 204.249 49.4C202.583 46.3333 201.749 42.6667 201.749 38.4C201.749 32.5333 203.916 27.4333 208.249 23.1C212.649 18.7 218.616 16.5 226.149 16.5C230.149 16.5 233.783 17.0333 237.049 18.1C240.383 19.1 242.683 20.1333 243.949 21.2L246.449 23.1C248.516 25.0333 249.549 26.6667 249.549 28C249.549 29.3333 248.749 31.1667 247.149 33.5C244.883 36.8333 242.549 38.5 240.149 38.5C238.749 38.5 237.016 37.8333 234.949 36.5C234.749 36.3667 234.349 36.0333 233.749 35.5C233.216 34.9667 232.716 34.5333 232.249 34.2C230.849 33.3333 229.049 32.9 226.849 32.9C224.716 32.9 222.916 33.4333 221.449 34.5C220.049 35.5 219.349 36.9333 219.349 38.8C219.349 40.6 220.183 42.0667 221.849 43.2C223.583 44.3333 225.716 45.1 228.249 45.5C230.783 45.9 233.549 46.5333 236.549 47.4C239.549 48.2 242.316 49.2 244.849 50.4C247.383 51.6 249.483 53.7 251.149 56.7C252.883 59.6333 253.749 63.2667 253.749 67.6C253.749 71.9333 252.883 75.7667 251.149 79.1C249.416 82.3667 247.149 84.9 244.349 86.7C238.949 90.2333 233.183 92 227.049 92C223.916 92 220.949 91.6333 218.149 90.9C215.349 90.1 213.083 89.1333 211.349 88C207.816 85.8667 205.349 83.8 203.949 81.8L203.049 80.7ZM260.25 26.5C260.25 24.9667 260.283 23.8333 260.35 23.1C260.483 22.3 260.817 21.4 261.35 20.4C262.283 18.6 264.883 17.7 269.15 17.7C273.817 17.7 276.583 18.9333 277.45 21.4C277.783 22.5333 277.95 24.2667 277.95 26.6V82.2C277.95 83.8 277.883 84.9667 277.75 85.7C277.683 86.4333 277.383 87.3 276.85 88.3C275.917 90.1 273.317 91 269.05 91C264.383 91 261.65 89.7333 260.85 87.2C260.45 86.1333 260.25 84.4333 260.25 82.1V26.5Z" fill="white"/>
<path d="M268.76 0.855469C268.167 0.855469 267.587 1.03141 267.094 1.36105C266.6 1.69069 266.216 2.15928 265.989 2.70746C265.762 3.25563 265.702 3.85878 265.818 4.44072C265.934 5.02266 266.219 5.5572 266.639 5.97675C267.058 6.39631 267.593 6.68205 268.175 6.7978C268.757 6.91356 269.36 6.85423 269.908 6.62716C270.456 6.4001 270.925 6.01555 271.255 5.52221C271.584 5.02886 271.76 4.44881 271.76 3.85547C271.76 3.05982 271.444 2.29678 270.882 1.73418C270.319 1.17157 269.556 0.855469 268.76 0.855469V0.855469Z" fill="white"/>
<line x1="268.5" y1="84" x2="268.5" y2="1" stroke="white" stroke-dasharray="6 6"/>
</svg>
