<svg width="282" height="131" viewBox="0 0 282 131" fill="none" xmlns="http://www.w3.org/2000/svg">
<path d="M95.9999 53.8555C95.9999 54.8444 96.2931 55.8111 96.8425 56.6334C97.3919 57.4556 98.1729 58.0965 99.0865 58.4749C100 58.8533 101.005 58.9523 101.975 58.7594C102.945 58.5665 103.836 58.0903 104.535 57.391C105.235 56.6918 105.711 55.8009 105.904 54.831C106.097 53.8611 105.998 52.8558 105.619 51.9421C105.241 51.0285 104.6 50.2476 103.778 49.6982C102.956 49.1488 101.989 48.8555 101 48.8555C99.6738 48.8555 98.4021 49.3823 97.4644 50.32C96.5267 51.2577 95.9999 52.5294 95.9999 53.8555V53.8555Z" fill="white"/>
<path d="M60.1 78.6C61.1 81 61.6 82.7333 61.6 83.8C61.6 86.3333 59.5333 88.4667 55.4 90.2C53.2667 91.1333 51.5333 91.6 50.2 91.6C48.9333 91.6 47.8667 91.3 47 90.7C46.2 90.0333 45.6 89.3667 45.2 88.7C44.5333 87.4333 41.9333 81.4 37.4 70.6L34.3 70.8H21.7V82.1C21.7 83.6333 21.6333 84.8 21.5 85.6C21.4333 86.3333 21.1333 87.2 20.6 88.2C19.6667 90 17.0667 90.9 12.8 90.9C8.13333 90.9 5.4 89.6667 4.6 87.2C4.2 86.0667 4 84.3333 4 82V26.5C4 24.9667 4.03333 23.8333 4.1 23.1C4.23333 22.3 4.56667 21.4 5.1 20.4C6.03333 18.6 8.63333 17.7 12.9 17.7H34.5C40.3667 17.7 46.0667 19.8333 51.6 24.1C54.2667 26.1667 56.4667 28.9667 58.2 32.5C59.9333 36.0333 60.8 39.9667 60.8 44.3C60.8 51.8333 58.3 58.0333 53.3 62.9C54.7667 66.4333 57.0333 71.6667 60.1 78.6ZM21.7 53.1H34.5C36.4333 53.1 38.3667 52.3667 40.3 50.9C42.2333 49.4333 43.2 47.2333 43.2 44.3C43.2 41.3667 42.2333 39.1667 40.3 37.7C38.3667 36.1667 36.3667 35.4 34.3 35.4H21.7V53.1ZM100.509 16.8C110.376 16.8 118.943 20.3667 126.209 27.5C133.476 34.6333 137.109 43.5 137.109 54.1C137.109 64.6333 133.643 73.6333 126.709 81.1C119.776 88.5 111.243 92.2 101.109 92.2C90.976 92.2 82.3427 88.5333 75.2094 81.2C68.1427 73.8667 64.6094 65.1333 64.6094 55C64.6094 49.4667 65.6094 44.3 67.6094 39.5C69.6094 34.6333 72.276 30.5667 75.6094 27.3C78.9427 24.0333 82.776 21.4667 87.1094 19.6C91.4427 17.7333 95.9094 16.8 100.509 16.8ZM82.3094 54.5C82.3094 60.4333 84.2094 65.2667 88.0094 69C91.876 72.6667 96.176 74.5 100.909 74.5C105.643 74.5 109.909 72.7 113.709 69.1C117.509 65.5 119.409 60.6667 119.409 54.6C119.409 48.5333 117.476 43.6667 113.609 40C109.809 36.3333 105.543 34.5 100.809 34.5C96.076 34.5 91.8094 36.3667 88.0094 40.1C84.2094 43.7667 82.3094 48.5667 82.3094 54.5ZM144.748 80.7C143.015 78.5667 142.148 76.6667 142.148 75C142.148 73.2667 143.582 71 146.448 68.2C148.115 66.6 149.882 65.8 151.748 65.8C153.615 65.8 156.215 67.4667 159.548 70.8C160.482 71.9333 161.815 73.0333 163.548 74.1C165.282 75.1 166.882 75.6 168.348 75.6C174.548 75.6 177.648 73.0667 177.648 68C177.648 66.4667 176.782 65.2 175.048 64.2C173.382 63.1333 171.282 62.3667 168.748 61.9C166.215 61.4333 163.482 60.7 160.548 59.7C157.615 58.6333 154.882 57.4 152.348 56C149.815 54.6 147.682 52.4 145.948 49.4C144.282 46.3333 143.448 42.6667 143.448 38.4C143.448 32.5333 145.615 27.4333 149.948 23.1C154.348 18.7 160.315 16.5 167.848 16.5C171.848 16.5 175.482 17.0333 178.748 18.1C182.082 19.1 184.382 20.1333 185.648 21.2L188.148 23.1C190.215 25.0333 191.248 26.6667 191.248 28C191.248 29.3333 190.448 31.1667 188.848 33.5C186.582 36.8333 184.248 38.5 181.848 38.5C180.448 38.5 178.715 37.8333 176.648 36.5C176.448 36.3667 176.048 36.0333 175.448 35.5C174.915 34.9667 174.415 34.5333 173.948 34.2C172.548 33.3333 170.748 32.9 168.548 32.9C166.415 32.9 164.615 33.4333 163.148 34.5C161.748 35.5 161.048 36.9333 161.048 38.8C161.048 40.6 161.882 42.0667 163.548 43.2C165.282 44.3333 167.415 45.1 169.948 45.5C172.482 45.9 175.248 46.5333 178.248 47.4C181.248 48.2 184.015 49.2 186.548 50.4C189.082 51.6 191.182 53.7 192.848 56.7C194.582 59.6333 195.448 63.2667 195.448 67.6C195.448 71.9333 194.582 75.7667 192.848 79.1C191.115 82.3667 188.848 84.9 186.048 86.7C180.648 90.2333 174.882 92 168.748 92C165.615 92 162.648 91.6333 159.848 90.9C157.048 90.1 154.782 89.1333 153.048 88C149.515 85.8667 147.048 83.8 145.648 81.8L144.748 80.7ZM203.049 80.7C201.316 78.5667 200.449 76.6667 200.449 75C200.449 73.2667 201.883 71 204.749 68.2C206.416 66.6 208.183 65.8 210.049 65.8C211.916 65.8 214.516 67.4667 217.849 70.8C218.783 71.9333 220.116 73.0333 221.849 74.1C223.583 75.1 225.183 75.6 226.649 75.6C232.849 75.6 235.949 73.0667 235.949 68C235.949 66.4667 235.083 65.2 233.349 64.2C231.683 63.1333 229.583 62.3667 227.049 61.9C224.516 61.4333 221.783 60.7 218.849 59.7C215.916 58.6333 213.183 57.4 210.649 56C208.116 54.6 205.983 52.4 204.249 49.4C202.583 46.3333 201.749 42.6667 201.749 38.4C201.749 32.5333 203.916 27.4333 208.249 23.1C212.649 18.7 218.616 16.5 226.149 16.5C230.149 16.5 233.783 17.0333 237.049 18.1C240.383 19.1 242.683 20.1333 243.949 21.2L246.449 23.1C248.516 25.0333 249.549 26.6667 249.549 28C249.549 29.3333 248.749 31.1667 247.149 33.5C244.883 36.8333 242.549 38.5 240.149 38.5C238.749 38.5 237.016 37.8333 234.949 36.5C234.749 36.3667 234.349 36.0333 233.749 35.5C233.216 34.9667 232.716 34.5333 232.249 34.2C230.849 33.3333 229.049 32.9 226.849 32.9C224.716 32.9 222.916 33.4333 221.449 34.5C220.049 35.5 219.349 36.9333 219.349 38.8C219.349 40.6 220.183 42.0667 221.849 43.2C223.583 44.3333 225.716 45.1 228.249 45.5C230.783 45.9 233.549 46.5333 236.549 47.4C239.549 48.2 242.316 49.2 244.849 50.4C247.383 51.6 249.483 53.7 251.149 56.7C252.883 59.6333 253.749 63.2667 253.749 67.6C253.749 71.9333 252.883 75.7667 251.149 79.1C249.416 82.3667 247.149 84.9 244.349 86.7C238.949 90.2333 233.183 92 227.049 92C223.916 92 220.949 91.6333 218.149 90.9C215.349 90.1 213.083 89.1333 211.349 88C207.816 85.8667 205.349 83.8 203.949 81.8L203.049 80.7ZM260.25 26.5C260.25 24.9667 260.283 23.8333 260.35 23.1C260.483 22.3 260.817 21.4 261.35 20.4C262.283 18.6 264.883 17.7 269.15 17.7C273.817 17.7 276.583 18.9333 277.45 21.4C277.783 22.5333 277.95 24.2667 277.95 26.6V82.2C277.95 83.8 277.883 84.9667 277.75 85.7C277.683 86.4333 277.383 87.3 276.85 88.3C275.917 90.1 273.317 91 269.05 91C264.383 91 261.65 89.7333 260.85 87.2C260.45 86.1333 260.25 84.4333 260.25 82.1V26.5Z" fill="white"/>
<path d="M268.76 0.855469C268.167 0.855469 267.587 1.03141 267.094 1.36105C266.6 1.69069 266.216 2.15928 265.989 2.70746C265.762 3.25563 265.702 3.85878 265.818 4.44072C265.934 5.02266 266.219 5.5572 266.639 5.97675C267.058 6.39631 267.593 6.68205 268.175 6.7978C268.757 6.91356 269.36 6.85423 269.908 6.62716C270.456 6.4001 270.925 6.01555 271.255 5.52221C271.584 5.02886 271.76 4.44881 271.76 3.85547C271.76 3.05982 271.444 2.29678 270.882 1.73418C270.319 1.17157 269.556 0.855469 268.76 0.855469V0.855469Z" fill="white"/>
<line x1="268.5" y1="84" x2="268.5" y2="1" stroke="white" stroke-dasharray="6 6"/>
<path d="M14.8428 118.609C14.8428 118.111 14.7646 117.672 14.6084 117.291C14.4619 116.9 14.1982 116.549 13.8174 116.236C13.4463 115.924 12.9287 115.626 12.2646 115.343C11.6104 115.06 10.7803 114.771 9.77441 114.479C8.71973 114.166 7.76758 113.819 6.91797 113.438C6.06836 113.048 5.34082 112.604 4.73535 112.105C4.12988 111.607 3.66602 111.036 3.34375 110.392C3.02148 109.747 2.86035 109.01 2.86035 108.18C2.86035 107.35 3.03125 106.583 3.37305 105.88C3.71484 105.177 4.20312 104.566 4.83789 104.049C5.48242 103.521 6.24902 103.111 7.1377 102.818C8.02637 102.525 9.01758 102.379 10.1113 102.379C11.7129 102.379 13.0703 102.687 14.1836 103.302C15.3066 103.907 16.1611 104.703 16.7471 105.689C17.333 106.666 17.626 107.711 17.626 108.824H14.8135C14.8135 108.023 14.6426 107.315 14.3008 106.7C13.959 106.075 13.4414 105.587 12.748 105.235C12.0547 104.874 11.1758 104.693 10.1113 104.693C9.10547 104.693 8.27539 104.845 7.62109 105.147C6.9668 105.45 6.47852 105.86 6.15625 106.378C5.84375 106.896 5.6875 107.486 5.6875 108.15C5.6875 108.6 5.78027 109.01 5.96582 109.381C6.16113 109.742 6.45898 110.079 6.85938 110.392C7.26953 110.704 7.78711 110.992 8.41211 111.256C9.04688 111.52 9.80371 111.773 10.6826 112.018C11.8936 112.359 12.9385 112.74 13.8174 113.16C14.6963 113.58 15.4189 114.054 15.9854 114.581C16.5615 115.099 16.9863 115.689 17.2598 116.354C17.543 117.008 17.6846 117.75 17.6846 118.58C17.6846 119.449 17.5088 120.235 17.1572 120.938C16.8057 121.642 16.3027 122.242 15.6484 122.74C14.9941 123.238 14.208 123.624 13.29 123.897C12.3818 124.161 11.3662 124.293 10.2432 124.293C9.25684 124.293 8.28516 124.156 7.32812 123.883C6.38086 123.609 5.5166 123.199 4.73535 122.652C3.96387 122.105 3.34375 121.432 2.875 120.631C2.41602 119.82 2.18652 118.883 2.18652 117.818H4.99902C4.99902 118.551 5.14062 119.181 5.42383 119.708C5.70703 120.226 6.09277 120.655 6.58105 120.997C7.0791 121.339 7.64062 121.593 8.26562 121.759C8.90039 121.915 9.55957 121.993 10.2432 121.993C11.2295 121.993 12.0645 121.856 12.748 121.583C13.4316 121.31 13.9492 120.919 14.3008 120.411C14.6621 119.903 14.8428 119.303 14.8428 118.609ZM37.709 112.662V114.01C37.709 115.611 37.5088 117.047 37.1084 118.316C36.708 119.586 36.1318 120.665 35.3799 121.554C34.6279 122.442 33.7246 123.121 32.6699 123.59C31.625 124.059 30.4531 124.293 29.1543 124.293C27.8945 124.293 26.7373 124.059 25.6826 123.59C24.6377 123.121 23.7295 122.442 22.958 121.554C22.1963 120.665 21.6055 119.586 21.1855 118.316C20.7656 117.047 20.5557 115.611 20.5557 114.01V112.662C20.5557 111.061 20.7607 109.63 21.1709 108.37C21.5908 107.101 22.1816 106.021 22.9434 105.133C23.7051 104.234 24.6084 103.551 25.6533 103.082C26.708 102.613 27.8652 102.379 29.125 102.379C30.4238 102.379 31.5957 102.613 32.6406 103.082C33.6953 103.551 34.5986 104.234 35.3506 105.133C36.1123 106.021 36.6934 107.101 37.0938 108.37C37.5039 109.63 37.709 111.061 37.709 112.662ZM34.9111 114.01V112.633C34.9111 111.363 34.7793 110.24 34.5156 109.264C34.2617 108.287 33.8857 107.467 33.3877 106.803C32.8896 106.139 32.2793 105.636 31.5566 105.294C30.8438 104.952 30.0332 104.781 29.125 104.781C28.2461 104.781 27.4502 104.952 26.7373 105.294C26.0342 105.636 25.4287 106.139 24.9209 106.803C24.4229 107.467 24.0371 108.287 23.7637 109.264C23.4902 110.24 23.3535 111.363 23.3535 112.633V114.01C23.3535 115.289 23.4902 116.422 23.7637 117.408C24.0371 118.385 24.4277 119.21 24.9355 119.884C25.4531 120.548 26.0635 121.051 26.7666 121.393C27.4795 121.734 28.2754 121.905 29.1543 121.905C30.0723 121.905 30.8877 121.734 31.6006 121.393C32.3135 121.051 32.9141 120.548 33.4023 119.884C33.9004 119.21 34.2764 118.385 34.5303 117.408C34.7842 116.422 34.9111 115.289 34.9111 114.01ZM54.877 121.7V124H44.2129V121.7H54.877ZM44.7695 102.672V124H41.9424V102.672H44.7695ZM66.3027 104.562L59.2422 124H56.3564L64.4863 102.672H66.3467L66.3027 104.562ZM72.2207 124L65.1455 104.562L65.1016 102.672H66.9619L75.1211 124H72.2207ZM71.8545 116.104V118.419H59.8721V116.104H71.8545ZM94.3838 102.672V124H91.542L80.8047 107.55V124H77.9775V102.672H80.8047L91.5859 119.166V102.672H94.3838ZM107.553 104.562L100.492 124H97.6064L105.736 102.672H107.597L107.553 104.562ZM113.471 124L106.396 104.562L106.352 102.672H108.212L116.371 124H113.471ZM113.104 116.104V118.419H101.122V116.104H113.104ZM133.554 120.763L139.838 102.672H142.899L135.004 124H132.821L133.554 120.763ZM127.68 102.672L133.905 120.763L134.682 124H132.499L124.618 102.672H127.68ZM152.553 104.562L145.492 124H142.606L150.736 102.672H152.597L152.553 104.562ZM158.471 124L151.396 104.562L151.352 102.672H153.212L161.371 124H158.471ZM158.104 116.104V118.419H146.122V116.104H158.104ZM177.162 121.7V124H166.498V121.7H177.162ZM167.055 102.672V124H164.228V102.672H167.055ZM183.432 102.672V124H180.604V102.672H183.432ZM194.345 124H189.892L189.921 121.7H194.345C195.868 121.7 197.138 121.383 198.153 120.748C199.169 120.104 199.931 119.205 200.438 118.053C200.956 116.891 201.215 115.533 201.215 113.98V112.677C201.215 111.456 201.068 110.372 200.775 109.425C200.482 108.468 200.053 107.662 199.486 107.008C198.92 106.344 198.227 105.841 197.406 105.499C196.596 105.157 195.663 104.986 194.608 104.986H189.804V102.672H194.608C196.005 102.672 197.279 102.906 198.432 103.375C199.584 103.834 200.575 104.503 201.405 105.382C202.245 106.251 202.89 107.306 203.339 108.546C203.788 109.776 204.013 111.163 204.013 112.706V113.98C204.013 115.523 203.788 116.915 203.339 118.155C202.89 119.386 202.24 120.436 201.391 121.305C200.551 122.174 199.535 122.843 198.344 123.312C197.162 123.771 195.829 124 194.345 124ZM191.4 102.672V124H188.573V102.672H191.4ZM215.834 104.562L208.773 124H205.888L214.018 102.672H215.878L215.834 104.562ZM221.752 124L214.677 104.562L214.633 102.672H216.493L224.652 124H221.752ZM221.386 116.104V118.419H209.403V116.104H221.386ZM233.485 102.672V124H230.702V102.672H233.485ZM240.341 102.672V104.986H223.861V102.672H240.341ZM259.516 112.662V114.01C259.516 115.611 259.315 117.047 258.915 118.316C258.515 119.586 257.938 120.665 257.187 121.554C256.435 122.442 255.531 123.121 254.477 123.59C253.432 124.059 252.26 124.293 250.961 124.293C249.701 124.293 248.544 124.059 247.489 123.59C246.444 123.121 245.536 122.442 244.765 121.554C244.003 120.665 243.412 119.586 242.992 118.316C242.572 117.047 242.362 115.611 242.362 114.01V112.662C242.362 111.061 242.567 109.63 242.978 108.37C243.397 107.101 243.988 106.021 244.75 105.133C245.512 104.234 246.415 103.551 247.46 103.082C248.515 102.613 249.672 102.379 250.932 102.379C252.23 102.379 253.402 102.613 254.447 103.082C255.502 103.551 256.405 104.234 257.157 105.133C257.919 106.021 258.5 107.101 258.9 108.37C259.311 109.63 259.516 111.061 259.516 112.662ZM256.718 114.01V112.633C256.718 111.363 256.586 110.24 256.322 109.264C256.068 108.287 255.692 107.467 255.194 106.803C254.696 106.139 254.086 105.636 253.363 105.294C252.65 104.952 251.84 104.781 250.932 104.781C250.053 104.781 249.257 104.952 248.544 105.294C247.841 105.636 247.235 106.139 246.728 106.803C246.229 107.467 245.844 108.287 245.57 109.264C245.297 110.24 245.16 111.363 245.16 112.633V114.01C245.16 115.289 245.297 116.422 245.57 117.408C245.844 118.385 246.234 119.21 246.742 119.884C247.26 120.548 247.87 121.051 248.573 121.393C249.286 121.734 250.082 121.905 250.961 121.905C251.879 121.905 252.694 121.734 253.407 121.393C254.12 121.051 254.721 120.548 255.209 119.884C255.707 119.21 256.083 118.385 256.337 117.408C256.591 116.422 256.718 115.289 256.718 114.01ZM263.749 102.672H270.81C272.411 102.672 273.764 102.916 274.867 103.404C275.98 103.893 276.825 104.615 277.401 105.572C277.987 106.52 278.28 107.687 278.28 109.073C278.28 110.05 278.08 110.943 277.68 111.754C277.289 112.555 276.723 113.238 275.98 113.805C275.248 114.361 274.369 114.776 273.344 115.05L272.553 115.357H265.917L265.888 113.058H270.897C271.913 113.058 272.758 112.882 273.432 112.53C274.105 112.169 274.613 111.686 274.955 111.08C275.297 110.475 275.468 109.806 275.468 109.073C275.468 108.253 275.307 107.535 274.984 106.92C274.662 106.305 274.154 105.831 273.461 105.499C272.777 105.157 271.894 104.986 270.81 104.986H266.576V124H263.749V102.672ZM276.215 124L271.029 114.332L273.974 114.317L279.232 123.824V124H276.215Z" fill="white"/>
</svg>
