<svg width="367" height="151" viewBox="0 0 367 151" fill="none" xmlns="http://www.w3.org/2000/svg">
<path d="M12.1498 78.012V1.91599H42.8898C55.4952 1.91599 64.4658 4.04266 69.8018 8.296C75.2152 12.5493 77.9218 19.3933 77.9218 28.828C77.9218 41.82 72.7792 50.2107 62.4938 54L79.4298 78.012H90.3338V83H60.7538L42.7738 57.132H30.2458V83H0.897827V78.012H12.1498ZM43.4698 41.472C49.6565 41.472 53.8712 40.4667 56.1138 38.456C58.3565 36.4453 59.4778 33.2747 59.4778 28.944C59.4778 24.536 58.3178 21.52 55.9978 19.896C53.6778 18.272 49.6178 17.46 43.8178 17.46H30.2458V41.472H43.4698Z" fill="#ED1343"/>
<path d="M181.478 78.012V83H85.6621V78.012H111.53C105.189 74.3773 100.162 69.3893 96.4501 63.048C92.8154 56.7067 90.9981 49.6693 90.9981 41.936C90.9981 30.0267 95.0968 20.0893 103.294 12.124C111.491 4.08133 121.583 0.0599976 133.57 0.0599976C145.557 0.0599976 155.649 4.08133 163.846 12.124C172.043 20.0893 176.142 30.0267 176.142 41.936C176.142 49.6693 174.286 56.7067 170.574 63.048C166.862 69.3893 161.874 74.3773 155.61 78.012H181.478ZM157.698 42.052C157.698 34.7827 155.378 28.596 150.738 23.492C146.098 18.388 140.375 15.836 133.57 15.836C126.842 15.836 121.158 18.388 116.518 23.492C111.878 28.596 109.558 34.7827 109.558 42.052C109.558 49.244 111.878 55.392 116.518 60.496C121.158 65.5227 126.842 68.036 133.57 68.036C140.375 68.036 146.098 65.5227 150.738 60.496C155.378 55.392 157.698 49.244 157.698 42.052Z" fill="#ED1343"/>
<path d="M254.826 78.012V83H180.818V78.012H196.594C192.341 75.8467 188.474 73.0627 184.994 69.66L195.782 56.436C204.521 64.092 212.602 67.92 220.026 67.92C223.352 67.92 225.942 67.224 227.798 65.832C229.732 64.3627 230.698 62.4293 230.698 60.032C230.698 57.5573 229.693 55.624 227.682 54.232C225.672 52.7627 221.689 51.2933 215.734 49.824C206.3 47.5813 199.378 44.6813 194.97 41.124C190.64 37.4893 188.474 31.844 188.474 24.188C188.474 16.4547 191.22 10.5 196.71 6.324C202.278 2.148 209.2 0.0599976 217.474 0.0599976C222.888 0.0599976 228.301 0.987997 233.714 2.844C239.128 4.7 243.845 7.32933 247.866 10.732L238.702 23.956C231.665 18.62 224.396 15.952 216.894 15.952C213.878 15.952 211.481 16.6867 209.702 18.156C208.001 19.548 207.15 21.4427 207.15 23.84C207.15 26.16 208.194 28.016 210.282 29.408C212.448 30.8 217.358 32.4627 225.014 34.396C232.748 36.252 238.741 39.0747 242.994 42.864C247.248 46.6533 249.374 51.912 249.374 58.64C249.374 66.992 246.242 73.4493 239.978 78.012H254.826Z" fill="#ED1343"/>
<path d="M328.799 78.012V83H254.791V78.012H270.567C266.314 75.8467 262.447 73.0627 258.967 69.66L269.755 56.436C278.494 64.092 286.575 67.92 293.999 67.92C297.324 67.92 299.915 67.224 301.771 65.832C303.704 64.3627 304.671 62.4293 304.671 60.032C304.671 57.5573 303.666 55.624 301.655 54.232C299.644 52.7627 295.662 51.2933 289.707 49.824C280.272 47.5813 273.351 44.6813 268.943 41.124C264.612 37.4893 262.447 31.844 262.447 24.188C262.447 16.4547 265.192 10.5 270.683 6.324C276.251 2.148 283.172 0.0599976 291.447 0.0599976C296.86 0.0599976 302.274 0.987997 307.687 2.844C313.1 4.7 317.818 7.32933 321.839 10.732L312.675 23.956C305.638 18.62 298.368 15.952 290.867 15.952C287.851 15.952 285.454 16.6867 283.675 18.156C281.974 19.548 281.123 21.4427 281.123 23.84C281.123 26.16 282.167 28.016 284.255 29.408C286.42 30.8 291.331 32.4627 298.987 34.396C306.72 36.252 312.714 39.0747 316.967 42.864C321.22 46.6533 323.347 51.912 323.347 58.64C323.347 66.992 320.215 73.4493 313.951 78.012H328.799Z" fill="#ED1343"/>
<path d="M366.812 78.012V83H328.764V78.012H338.74V1.91599H356.836V78.012H366.812Z" fill="#ED1343"/>
<ellipse cx="133" cy="42" rx="32" ry="31" fill="#ED1343"/>
<path d="M150.202 31.7602C149.912 32.0451 149.514 32.2113 149.091 32.2113L110.787 32.2113C110.087 32.2113 109.737 31.3804 110.232 30.8937L117.798 23.4511C118.088 23.1662 118.486 23 118.909 23L157.213 23C157.913 23 158.263 23.8309 157.768 24.3176L150.202 31.7602Z" fill="white"/>
<path d="M150.202 59.5489C149.9 59.8338 149.502 60 149.091 60L110.787 60C110.087 60 109.737 59.1691 110.232 58.6824L117.799 51.2398C118.088 50.9549 118.486 50.7887 118.909 50.7887L157.213 50.7887C157.913 50.7887 158.263 51.6196 157.768 52.1063L150.202 59.5489Z" fill="white"/>
<path d="M117.798 45.7438C118.088 46.0287 118.486 46.1948 118.909 46.1948L157.213 46.1948C157.913 46.1948 158.263 45.3639 157.768 44.8773L150.202 37.4346C149.912 37.1497 149.514 36.9836 149.091 36.9836L110.787 36.9836C110.087 36.9836 109.737 37.8145 110.232 38.3011L117.798 45.7438Z" fill="white"/>
<path d="M95.98 104.966L82.174 136H77.867L64.12 104.966H68.486L80.109 131.398L91.85 104.966H95.98ZM111.814 104.73C115.865 104.73 118.972 105.753 121.136 107.798C123.299 109.804 124.381 112.793 124.381 116.766V136H120.369V131.162C119.425 132.775 118.028 134.033 116.18 134.938C114.37 135.843 112.207 136.295 109.69 136.295C106.228 136.295 103.475 135.469 101.43 133.817C99.3844 132.165 98.3617 129.982 98.3617 127.268C98.3617 124.633 99.3057 122.509 101.194 120.896C103.121 119.283 106.169 118.477 110.339 118.477H120.192V116.589C120.192 113.914 119.444 111.889 117.95 110.512C116.455 109.096 114.272 108.388 111.401 108.388C109.434 108.388 107.546 108.722 105.737 109.391C103.927 110.02 102.374 110.905 101.076 112.046L99.1877 108.919C100.761 107.582 102.649 106.559 104.852 105.851C107.054 105.104 109.375 104.73 111.814 104.73ZM110.339 132.991C112.699 132.991 114.724 132.46 116.416 131.398C118.107 130.297 119.366 128.723 120.192 126.678V121.604H110.457C105.147 121.604 102.492 123.453 102.492 127.15C102.492 128.959 103.18 130.395 104.557 131.457C105.933 132.48 107.861 132.991 110.339 132.991ZM135.758 92.222H139.947V136H135.758V92.222ZM151.603 104.966H155.792V136H151.603V104.966ZM153.727 98.181C152.862 98.181 152.134 97.886 151.544 97.296C150.954 96.706 150.659 95.998 150.659 95.172C150.659 94.3853 150.954 93.697 151.544 93.107C152.134 92.517 152.862 92.222 153.727 92.222C154.593 92.222 155.32 92.517 155.91 93.107C156.5 93.6577 156.795 94.3263 156.795 95.113C156.795 95.9783 156.5 96.706 155.91 97.296C155.32 97.886 154.593 98.181 153.727 98.181ZM195.768 92.222V136H191.756V129.864C190.497 131.949 188.826 133.542 186.741 134.643C184.696 135.744 182.375 136.295 179.779 136.295C176.868 136.295 174.233 135.626 171.873 134.289C169.513 132.952 167.664 131.083 166.327 128.684C164.99 126.285 164.321 123.551 164.321 120.483C164.321 117.415 164.99 114.681 166.327 112.282C167.664 109.883 169.513 108.034 171.873 106.736C174.233 105.399 176.868 104.73 179.779 104.73C182.296 104.73 184.558 105.261 186.564 106.323C188.609 107.346 190.281 108.86 191.579 110.866V92.222H195.768ZM180.133 132.578C182.296 132.578 184.243 132.086 185.974 131.103C187.744 130.08 189.121 128.645 190.104 126.796C191.127 124.947 191.638 122.843 191.638 120.483C191.638 118.123 191.127 116.019 190.104 114.17C189.121 112.321 187.744 110.905 185.974 109.922C184.243 108.899 182.296 108.388 180.133 108.388C177.93 108.388 175.944 108.899 174.174 109.922C172.443 110.905 171.067 112.321 170.044 114.17C169.061 116.019 168.569 118.123 168.569 120.483C168.569 122.843 169.061 124.947 170.044 126.796C171.067 128.645 172.443 130.08 174.174 131.103C175.944 132.086 177.93 132.578 180.133 132.578ZM218.29 104.73C222.342 104.73 225.449 105.753 227.612 107.798C229.776 109.804 230.857 112.793 230.857 116.766V136H226.845V131.162C225.901 132.775 224.505 134.033 222.656 134.938C220.847 135.843 218.684 136.295 216.166 136.295C212.705 136.295 209.952 135.469 207.906 133.817C205.861 132.165 204.838 129.982 204.838 127.268C204.838 124.633 205.782 122.509 207.67 120.896C209.598 119.283 212.646 118.477 216.815 118.477H226.668V116.589C226.668 113.914 225.921 111.889 224.426 110.512C222.932 109.096 220.749 108.388 217.877 108.388C215.911 108.388 214.023 108.722 212.213 109.391C210.404 110.02 208.85 110.905 207.552 112.046L205.664 108.919C207.238 107.582 209.126 106.559 211.328 105.851C213.531 105.104 215.852 104.73 218.29 104.73ZM216.815 132.991C219.175 132.991 221.201 132.46 222.892 131.398C224.584 130.297 225.842 128.723 226.668 126.678V121.604H216.933C211.623 121.604 208.968 123.453 208.968 127.15C208.968 128.959 209.657 130.395 211.033 131.457C212.41 132.48 214.337 132.991 216.815 132.991ZM258.578 134.112C257.791 134.82 256.808 135.371 255.628 135.764C254.487 136.118 253.288 136.295 252.029 136.295C249.118 136.295 246.876 135.508 245.303 133.935C243.73 132.362 242.943 130.139 242.943 127.268V108.506H237.397V104.966H242.943V98.181H247.132V104.966H256.572V108.506H247.132V127.032C247.132 128.881 247.584 130.297 248.489 131.28C249.433 132.224 250.77 132.696 252.501 132.696C253.366 132.696 254.192 132.558 254.979 132.283C255.805 132.008 256.513 131.614 257.103 131.103L258.578 134.112ZM277.794 136.295C274.805 136.295 272.11 135.626 269.711 134.289C267.312 132.912 265.424 131.024 264.047 128.625C262.67 126.226 261.982 123.512 261.982 120.483C261.982 117.454 262.67 114.74 264.047 112.341C265.424 109.942 267.312 108.073 269.711 106.736C272.11 105.399 274.805 104.73 277.794 104.73C280.783 104.73 283.478 105.399 285.877 106.736C288.276 108.073 290.145 109.942 291.482 112.341C292.859 114.74 293.547 117.454 293.547 120.483C293.547 123.512 292.859 126.226 291.482 128.625C290.145 131.024 288.276 132.912 285.877 134.289C283.478 135.626 280.783 136.295 277.794 136.295ZM277.794 132.578C279.997 132.578 281.963 132.086 283.694 131.103C285.464 130.08 286.841 128.645 287.824 126.796C288.807 124.947 289.299 122.843 289.299 120.483C289.299 118.123 288.807 116.019 287.824 114.17C286.841 112.321 285.464 110.905 283.694 109.922C281.963 108.899 279.997 108.388 277.794 108.388C275.591 108.388 273.605 108.899 271.835 109.922C270.104 110.905 268.728 112.321 267.705 114.17C266.722 116.019 266.23 118.123 266.23 120.483C266.23 122.843 266.722 124.947 267.705 126.796C268.728 128.645 270.104 130.08 271.835 131.103C273.605 132.086 275.591 132.578 277.794 132.578ZM306.111 111.043C307.095 108.958 308.55 107.385 310.477 106.323C312.444 105.261 314.863 104.73 317.734 104.73V108.801L316.731 108.742C313.467 108.742 310.91 109.745 309.061 111.751C307.213 113.757 306.288 116.569 306.288 120.188V136H302.099V104.966H306.111V111.043Z" fill="white"/>
</svg>
