<svg width="246" height="82" viewBox="0 0 246 82" fill="none" xmlns="http://www.w3.org/2000/svg">
<path fill-rule="evenodd" clip-rule="evenodd" d="M35.507 8.0829L7 24.5415V57.4585L35.507 73.9171L64.0141 57.4585V24.5415L35.507 8.0829ZM71.0141 20.5L35.507 0L0 20.5V61.5L35.507 82L71.0141 61.5V20.5Z" fill="#42AAF5"/>
<g clip-path="url(#clip0_4_49)">
<path d="M21.7068 49.2543C21.9465 49.0197 22.276 48.8829 22.6254 48.8829H54.3159C54.895 48.8829 55.1845 49.5671 54.7752 49.9679L48.515 56.0966C48.2753 56.3312 47.9459 56.4681 47.5964 56.4681H15.9059C15.3268 56.4681 15.0373 55.7839 15.4466 55.3831L21.7068 49.2543Z" fill="white"/>
<path d="M21.7058 26.3714C21.9554 26.1368 22.2849 26 22.6243 26H54.3148C54.8939 26 55.1835 26.6842 54.7741 27.085L48.5139 33.2138C48.2743 33.4484 47.9448 33.5852 47.5953 33.5852H15.9048C15.3257 33.5852 15.0362 32.901 15.4456 32.5002L21.7058 26.3714Z" fill="white"/>
<path d="M48.515 37.7394C48.2753 37.5048 47.9459 37.3679 47.5964 37.3679H15.9059C15.3268 37.3679 15.0373 38.0522 15.4466 38.4529L21.7068 44.5817C21.9465 44.8163 22.276 44.9531 22.6254 44.9531H54.3159C54.895 44.9531 55.1845 44.2689 54.7752 43.8681L48.515 37.7394Z" fill="white"/>
</g>
<path d="M104.53 60.16L97.105 49.435H96.665H88.91V60.16H80V21.66H96.665C100.075 21.66 103.027 22.2283 105.52 23.365C108.05 24.5017 109.993 26.115 111.35 28.205C112.707 30.295 113.385 32.77 113.385 35.63C113.385 38.49 112.688 40.965 111.295 43.055C109.938 45.1083 107.995 46.685 105.465 47.785L114.1 60.16H104.53ZM104.365 35.63C104.365 33.4667 103.668 31.8167 102.275 30.68C100.882 29.5067 98.8467 28.92 96.17 28.92H88.91V42.34H96.17C98.8467 42.34 100.882 41.7533 102.275 40.58C103.668 39.4067 104.365 37.7567 104.365 35.63Z" fill="#42AAF5"/>
<path d="M139.089 60.82C135.093 60.82 131.481 59.9583 128.254 58.235C125.064 56.5117 122.553 54.1467 120.719 51.14C118.923 48.0967 118.024 44.6867 118.024 40.91C118.024 37.1333 118.923 33.7417 120.719 30.735C122.553 27.6917 125.064 25.3083 128.254 23.585C131.481 21.8617 135.093 21 139.089 21C143.086 21 146.679 21.8617 149.869 23.585C153.059 25.3083 155.571 27.6917 157.404 30.735C159.238 33.7417 160.154 37.1333 160.154 40.91C160.154 44.6867 159.238 48.0967 157.404 51.14C155.571 54.1467 153.059 56.5117 149.869 58.235C146.679 59.9583 143.086 60.82 139.089 60.82ZM139.089 53.23C141.363 53.23 143.416 52.7167 145.249 51.69C147.083 50.6267 148.513 49.16 149.539 47.29C150.603 45.42 151.134 43.2933 151.134 40.91C151.134 38.5267 150.603 36.4 149.539 34.53C148.513 32.66 147.083 31.2117 145.249 30.185C143.416 29.1217 141.363 28.59 139.089 28.59C136.816 28.59 134.763 29.1217 132.929 30.185C131.096 31.2117 129.648 32.66 128.584 34.53C127.558 36.4 127.044 38.5267 127.044 40.91C127.044 43.2933 127.558 45.42 128.584 47.29C129.648 49.16 131.096 50.6267 132.929 51.69C134.763 52.7167 136.816 53.23 139.089 53.23Z" fill="#42AAF5"/>
<path d="M179.501 60.82C176.457 60.82 173.506 60.4167 170.646 59.61C167.822 58.7667 165.549 57.685 163.826 56.365L166.851 49.655C168.501 50.865 170.462 51.8367 172.736 52.57C175.009 53.3033 177.282 53.67 179.556 53.67C182.086 53.67 183.956 53.3033 185.166 52.57C186.376 51.8 186.981 50.7917 186.981 49.545C186.981 48.6283 186.614 47.8767 185.881 47.29C185.184 46.6667 184.267 46.1717 183.131 45.805C182.031 45.4383 180.527 45.035 178.621 44.595C175.687 43.8983 173.286 43.2017 171.416 42.505C169.546 41.8083 167.932 40.69 166.576 39.15C165.256 37.61 164.596 35.5567 164.596 32.99C164.596 30.7533 165.201 28.7367 166.411 26.94C167.621 25.1067 169.436 23.6583 171.856 22.595C174.312 21.5317 177.301 21 180.821 21C183.277 21 185.679 21.2933 188.026 21.88C190.372 22.4667 192.426 23.31 194.186 24.41L191.436 31.175C187.879 29.1583 184.322 28.15 180.766 28.15C178.272 28.15 176.421 28.5533 175.211 29.36C174.037 30.1667 173.451 31.23 173.451 32.55C173.451 33.87 174.129 34.86 175.486 35.52C176.879 36.1433 178.987 36.7667 181.811 37.39C184.744 38.0867 187.146 38.7833 189.016 39.48C190.886 40.1767 192.481 41.2767 193.801 42.78C195.157 44.2833 195.836 46.3183 195.836 48.885C195.836 51.085 195.212 53.1017 193.966 54.935C192.756 56.7317 190.922 58.1617 188.466 59.225C186.009 60.2883 183.021 60.82 179.501 60.82Z" fill="#42AAF5"/>
<path d="M214.574 60.82C211.53 60.82 208.579 60.4167 205.719 59.61C202.895 58.7667 200.622 57.685 198.899 56.365L201.924 49.655C203.574 50.865 205.535 51.8367 207.809 52.57C210.082 53.3033 212.355 53.67 214.629 53.67C217.159 53.67 219.029 53.3033 220.239 52.57C221.449 51.8 222.054 50.7917 222.054 49.545C222.054 48.6283 221.687 47.8767 220.954 47.29C220.257 46.6667 219.34 46.1717 218.204 45.805C217.104 45.4383 215.6 45.035 213.694 44.595C210.76 43.8983 208.359 43.2017 206.489 42.505C204.619 41.8083 203.005 40.69 201.649 39.15C200.329 37.61 199.669 35.5567 199.669 32.99C199.669 30.7533 200.274 28.7367 201.484 26.94C202.694 25.1067 204.509 23.6583 206.929 22.595C209.385 21.5317 212.374 21 215.894 21C218.35 21 220.752 21.2933 223.099 21.88C225.445 22.4667 227.499 23.31 229.259 24.41L226.509 31.175C222.952 29.1583 219.395 28.15 215.839 28.15C213.345 28.15 211.494 28.5533 210.284 29.36C209.11 30.1667 208.524 31.23 208.524 32.55C208.524 33.87 209.202 34.86 210.559 35.52C211.952 36.1433 214.06 36.7667 216.884 37.39C219.817 38.0867 222.219 38.7833 224.089 39.48C225.959 40.1767 227.554 41.2767 228.874 42.78C230.23 44.2833 230.909 46.3183 230.909 48.885C230.909 51.085 230.285 53.1017 229.039 54.935C227.829 56.7317 225.996 58.1617 223.539 59.225C221.082 60.2883 218.094 60.82 214.574 60.82Z" fill="#42AAF5"/>
<path d="M236.997 21.66H245.907V60.16H236.997V21.66Z" fill="#42AAF5"/>
<defs>
<clipPath id="clip0_4_49">
<rect width="39.708" height="30.4679" fill="white" transform="translate(15.257 26)"/>
</clipPath>
</defs>
</svg>
