<svg width="366" height="180" viewBox="0 0 366 180" fill="none" xmlns="http://www.w3.org/2000/svg">
<path d="M11.2547 108.234V33H42.0019C54.6102 33 63.583 35.1026 68.9202 39.3077C74.3348 43.5128 77.0421 50.2793 77.0421 59.607C77.0421 72.4518 71.8983 80.7473 61.6105 84.4937L78.5505 108.234H89.4571V113.165H59.8701L41.8859 87.5902H29.3549V113.165H0V108.234H11.2547ZM42.582 72.1077C48.7701 72.1077 52.9858 71.1138 55.229 69.1259C57.4722 67.138 58.5938 64.0033 58.5938 59.7217C58.5938 55.3636 57.4335 52.3818 55.113 50.7762C52.7924 49.1706 48.7315 48.3678 42.9301 48.3678H29.3549V72.1077H42.582Z" fill="#ED1343"/>
<path d="M180.623 108.069V113H84.7844V108.069H110.659C104.316 104.475 99.2878 99.5436 95.575 93.2741C91.9394 87.0047 90.1217 80.0471 90.1217 72.4014C90.1217 60.627 94.2213 50.8023 102.421 42.9273C110.62 34.9758 120.714 31 132.704 31C144.693 31 154.788 34.9758 162.987 42.9273C171.186 50.8023 175.286 60.627 175.286 72.4014C175.286 80.0471 173.429 87.0047 169.716 93.2741C166.004 99.5436 161.014 104.475 154.749 108.069H180.623ZM156.837 72.5161C156.837 65.3291 154.517 59.2126 149.876 54.1664C145.235 49.1203 139.511 46.5972 132.704 46.5972C125.974 46.5972 120.289 49.1203 115.648 54.1664C111.007 59.2126 108.686 65.3291 108.686 72.5161C108.686 79.6266 111.007 85.7049 115.648 90.7511C120.289 95.7207 125.974 98.2056 132.704 98.2056C139.511 98.2056 145.235 95.7207 149.876 90.7511C154.517 85.7049 156.837 79.6266 156.837 72.5161Z" fill="#ED1343"/>
<path d="M253.988 108.069V113H179.963V108.069H195.743C191.488 105.928 187.621 103.175 184.14 99.8112L194.931 86.7371C203.671 94.3063 211.755 98.0909 219.18 98.0909C222.506 98.0909 225.098 97.4028 226.954 96.0266C228.888 94.5739 229.855 92.6625 229.855 90.2923C229.855 87.8457 228.849 85.9343 226.838 84.558C224.827 83.1054 220.843 81.6527 214.887 80.2C205.45 77.9827 198.527 75.1156 194.118 71.5986C189.787 68.0051 187.621 62.4238 187.621 54.8545C187.621 47.2089 190.367 41.3217 195.859 37.193C201.428 33.0643 208.351 31 216.628 31C222.042 31 227.457 31.9175 232.872 33.7524C238.286 35.5874 243.005 38.1869 247.027 41.5511L237.861 54.6252C230.822 49.3497 223.551 46.7119 216.048 46.7119C213.031 46.7119 210.633 47.4382 208.854 48.8909C207.152 50.2671 206.301 52.1403 206.301 54.5105C206.301 56.8042 207.346 58.6392 209.434 60.0154C211.6 61.3916 216.512 63.0354 224.169 64.9468C231.905 66.7818 237.899 69.5725 242.154 73.3189C246.408 77.0653 248.535 82.2643 248.535 88.9161C248.535 97.1734 245.402 103.558 239.137 108.069H253.988Z" fill="#ED1343"/>
<path d="M327.979 108.069V113H253.953V108.069H269.733C265.479 105.928 261.611 103.175 258.13 99.8112L268.921 86.7371C277.661 94.3063 285.745 98.0909 293.17 98.0909C296.496 98.0909 299.088 97.4028 300.944 96.0266C302.878 94.5739 303.845 92.6625 303.845 90.2923C303.845 87.8457 302.839 85.9343 300.828 84.558C298.817 83.1054 294.833 81.6527 288.877 80.2C279.44 77.9827 272.518 75.1156 268.108 71.5986C263.777 68.0051 261.611 62.4238 261.611 54.8545C261.611 47.2089 264.357 41.3217 269.849 37.193C275.418 33.0643 282.341 31 290.618 31C296.032 31 301.447 31.9175 306.862 33.7524C312.276 35.5874 316.995 38.1869 321.017 41.5511L311.851 54.6252C304.812 49.3497 297.541 46.7119 290.038 46.7119C287.021 46.7119 284.623 47.4382 282.844 48.8909C281.142 50.2671 280.291 52.1403 280.291 54.5105C280.291 56.8042 281.336 58.6392 283.424 60.0154C285.59 61.3916 290.502 63.0354 298.16 64.9468C305.895 66.7818 311.889 69.5725 316.144 73.3189C320.398 77.0653 322.525 82.2643 322.525 88.9161C322.525 97.1734 319.393 103.558 313.127 108.069H327.979Z" fill="#ED1343"/>
<path d="M366 108.069V113H327.943V108.069H337.922V32.835H356.022V108.069H366Z" fill="#ED1343"/>
<path d="M92.98 133.966L79.174 165H74.867L61.12 133.966H65.486L77.109 160.398L88.85 133.966H92.98ZM108.814 133.73C112.865 133.73 115.972 134.753 118.136 136.798C120.299 138.804 121.381 141.793 121.381 145.766V165H117.369V160.162C116.425 161.775 115.028 163.033 113.18 163.938C111.37 164.843 109.207 165.295 106.69 165.295C103.228 165.295 100.475 164.469 98.4297 162.817C96.3844 161.165 95.3617 158.982 95.3617 156.268C95.3617 153.633 96.3057 151.509 98.1937 149.896C100.121 148.283 103.169 147.477 107.339 147.477H117.192V145.589C117.192 142.914 116.444 140.889 114.95 139.512C113.455 138.096 111.272 137.388 108.401 137.388C106.434 137.388 104.546 137.722 102.737 138.391C100.927 139.02 99.3737 139.905 98.0757 141.046L96.1877 137.919C97.761 136.582 99.649 135.559 101.852 134.851C104.054 134.104 106.375 133.73 108.814 133.73ZM107.339 161.991C109.699 161.991 111.724 161.46 113.416 160.398C115.107 159.297 116.366 157.723 117.192 155.678V150.604H107.457C102.147 150.604 99.4917 152.453 99.4917 156.15C99.4917 157.959 100.18 159.395 101.557 160.457C102.933 161.48 104.861 161.991 107.339 161.991ZM132.758 121.222H136.947V165H132.758V121.222ZM148.603 133.966H152.792V165H148.603V133.966ZM150.727 127.181C149.862 127.181 149.134 126.886 148.544 126.296C147.954 125.706 147.659 124.998 147.659 124.172C147.659 123.385 147.954 122.697 148.544 122.107C149.134 121.517 149.862 121.222 150.727 121.222C151.593 121.222 152.32 121.517 152.91 122.107C153.5 122.658 153.795 123.326 153.795 124.113C153.795 124.978 153.5 125.706 152.91 126.296C152.32 126.886 151.593 127.181 150.727 127.181ZM192.768 121.222V165H188.756V158.864C187.497 160.949 185.826 162.542 183.741 163.643C181.696 164.744 179.375 165.295 176.779 165.295C173.868 165.295 171.233 164.626 168.873 163.289C166.513 161.952 164.664 160.083 163.327 157.684C161.99 155.285 161.321 152.551 161.321 149.483C161.321 146.415 161.99 143.681 163.327 141.282C164.664 138.883 166.513 137.034 168.873 135.736C171.233 134.399 173.868 133.73 176.779 133.73C179.296 133.73 181.558 134.261 183.564 135.323C185.609 136.346 187.281 137.86 188.579 139.866V121.222H192.768ZM177.133 161.578C179.296 161.578 181.243 161.086 182.974 160.103C184.744 159.08 186.121 157.645 187.104 155.796C188.127 153.947 188.638 151.843 188.638 149.483C188.638 147.123 188.127 145.019 187.104 143.17C186.121 141.321 184.744 139.905 182.974 138.922C181.243 137.899 179.296 137.388 177.133 137.388C174.93 137.388 172.944 137.899 171.174 138.922C169.443 139.905 168.067 141.321 167.044 143.17C166.061 145.019 165.569 147.123 165.569 149.483C165.569 151.843 166.061 153.947 167.044 155.796C168.067 157.645 169.443 159.08 171.174 160.103C172.944 161.086 174.93 161.578 177.133 161.578ZM215.29 133.73C219.342 133.73 222.449 134.753 224.612 136.798C226.776 138.804 227.857 141.793 227.857 145.766V165H223.845V160.162C222.901 161.775 221.505 163.033 219.656 163.938C217.847 164.843 215.684 165.295 213.166 165.295C209.705 165.295 206.952 164.469 204.906 162.817C202.861 161.165 201.838 158.982 201.838 156.268C201.838 153.633 202.782 151.509 204.67 149.896C206.598 148.283 209.646 147.477 213.815 147.477H223.668V145.589C223.668 142.914 222.921 140.889 221.426 139.512C219.932 138.096 217.749 137.388 214.877 137.388C212.911 137.388 211.023 137.722 209.213 138.391C207.404 139.02 205.85 139.905 204.552 141.046L202.664 137.919C204.238 136.582 206.126 135.559 208.328 134.851C210.531 134.104 212.852 133.73 215.29 133.73ZM213.815 161.991C216.175 161.991 218.201 161.46 219.892 160.398C221.584 159.297 222.842 157.723 223.668 155.678V150.604H213.933C208.623 150.604 205.968 152.453 205.968 156.15C205.968 157.959 206.657 159.395 208.033 160.457C209.41 161.48 211.337 161.991 213.815 161.991ZM255.578 163.112C254.791 163.82 253.808 164.371 252.628 164.764C251.487 165.118 250.288 165.295 249.029 165.295C246.118 165.295 243.876 164.508 242.303 162.935C240.73 161.362 239.943 159.139 239.943 156.268V137.506H234.397V133.966H239.943V127.181H244.132V133.966H253.572V137.506H244.132V156.032C244.132 157.881 244.584 159.297 245.489 160.28C246.433 161.224 247.77 161.696 249.501 161.696C250.366 161.696 251.192 161.558 251.979 161.283C252.805 161.008 253.513 160.614 254.103 160.103L255.578 163.112ZM274.794 165.295C271.805 165.295 269.11 164.626 266.711 163.289C264.312 161.912 262.424 160.024 261.047 157.625C259.67 155.226 258.982 152.512 258.982 149.483C258.982 146.454 259.67 143.74 261.047 141.341C262.424 138.942 264.312 137.073 266.711 135.736C269.11 134.399 271.805 133.73 274.794 133.73C277.783 133.73 280.478 134.399 282.877 135.736C285.276 137.073 287.145 138.942 288.482 141.341C289.859 143.74 290.547 146.454 290.547 149.483C290.547 152.512 289.859 155.226 288.482 157.625C287.145 160.024 285.276 161.912 282.877 163.289C280.478 164.626 277.783 165.295 274.794 165.295ZM274.794 161.578C276.997 161.578 278.963 161.086 280.694 160.103C282.464 159.08 283.841 157.645 284.824 155.796C285.807 153.947 286.299 151.843 286.299 149.483C286.299 147.123 285.807 145.019 284.824 143.17C283.841 141.321 282.464 139.905 280.694 138.922C278.963 137.899 276.997 137.388 274.794 137.388C272.591 137.388 270.605 137.899 268.835 138.922C267.104 139.905 265.728 141.321 264.705 143.17C263.722 145.019 263.23 147.123 263.23 149.483C263.23 151.843 263.722 153.947 264.705 155.796C265.728 157.645 267.104 159.08 268.835 160.103C270.605 161.086 272.591 161.578 274.794 161.578ZM303.111 140.043C304.095 137.958 305.55 136.385 307.477 135.323C309.444 134.261 311.863 133.73 314.734 133.73V137.801L313.731 137.742C310.467 137.742 307.91 138.745 306.061 140.751C304.213 142.757 303.288 145.569 303.288 149.188V165H299.099V133.966H303.111V140.043Z" fill="white"/>
<path d="M358.151 6.62935C357.934 6.84493 357.635 6.97069 357.318 6.97069L328.59 6.97069C328.065 6.97069 327.803 6.34189 328.174 5.9736L333.849 0.34135C334.066 0.125761 334.365 -2.74172e-08 334.682 0L363.41 2.48635e-06C363.935 2.53179e-06 364.197 0.628803 363.826 0.997099L358.151 6.62935Z" fill="#ED1343"/>
<path d="M358.151 27.6587C357.925 27.8742 357.626 28 357.318 28L328.59 28C328.065 28 327.803 27.3712 328.174 27.0029L333.849 21.3706C334.066 21.1551 334.365 21.0293 334.682 21.0293L363.41 21.0293C363.935 21.0293 364.197 21.6581 363.826 22.0264L358.151 27.6587Z" fill="#ED1343"/>
<path d="M333.849 17.2115C334.066 17.4271 334.365 17.5529 334.682 17.5529L363.41 17.5529C363.935 17.5529 364.197 16.9241 363.826 16.5558L358.151 10.9235C357.934 10.7079 357.635 10.5822 357.318 10.5822L328.59 10.5821C328.065 10.5821 327.803 11.2109 328.174 11.5792L333.849 17.2115Z" fill="#ED1343"/>
<line y1="35.5" x2="24" y2="35.5" stroke="#ED1343" stroke-width="5"/>
<path d="M328.5 35.3H365" stroke="#ED1343" stroke-width="5"/>
</svg>
